<?xml version="1.0" encoding="utf-8"?>
<!-- Generator: Adobe Illustrator 24.0.0, SVG Export Plug-In . SVG Version: 6.00 Build 0)  -->
<svg version="1.1" id="Capa_1" xmlns="http://www.w3.org/2000/svg" xmlns:xlink="http://www.w3.org/1999/xlink" x="0px" y="0px"
	 viewBox="0 0 1080 1080" style="enable-background:new 0 0 1080 1080;" xml:space="preserve">
<style type="text/css">
	.st0{fill:#BD1622;}
	.st1{fill:#E20613;}
	.st2{fill:none;stroke:#FFFFFF;stroke-width:23.7516;stroke-linecap:round;stroke-linejoin:round;stroke-miterlimit:10;}
	.st3{fill:#9D9D9D;}
	.st4{fill:#FFCE01;}
	.st5{fill:#F8BA83;}
	.st6{fill:#A36234;}
	.st7{fill:#2B4294;}
	.st8{fill:#575756;}
	.st9{fill:#B6970C;}
	.st10{fill:#C18A62;}
	.st11{fill:#3F1E0E;}
	.st12{fill:#272C63;}
	.st13{fill:#D9D9D9;}
	.st14{fill:#F8D6AA;}
	.st15{fill:#8692C8;}
	.st16{fill:#FFF6B1;}
</style>
<g>
	<path class="st0" d="M585.4,181.4c203,19.8,361.4,184.2,361.4,384.2c0,213.3-180.2,386.2-402.5,386.2c-11.7,0-23.3-0.5-34.8-1.4"/>
	<path class="st1" d="M509.4,950.4c-206-16.9-367.7-182.7-367.7-384.8c0-213.3,180.2-386.2,402.5-386.2c13.9,0,27.6,0.7,41.2,2"/>
	<g>
		<path class="st2" d="M466.4,160.9c-1.7,2.1,2.8,4.5,2.8,4.5s2.4,2,2.1,3.3c-0.2,1.3,3.2,5.9,2.7,8.6c-0.5,2.7,5.4,9.2,16.4-0.2
			l-22.3-37.2c0,0,0,6.3,0.5,8.5C469.1,150.6,468,158.8,466.4,160.9z"/>
		<path class="st2" d="M524.8,176l2.7-16.1C526.5,161.4,524.8,176,524.8,176z"/>
		<path class="st2" d="M550,208.6c-0.6,3.9-0.7,6-0.7,6L550,208.6z"/>
		<path class="st2" d="M600.4,166.1c5-28.2-0.2-29.3-6.1-54.6c-0.5-2-0.8-4-1.2-6l-1.6,141.5C596.7,243.2,595.4,194.2,600.4,166.1z"
			/>
		<path class="st2" d="M528.9,289.8l3.3,3.8C531.8,292.6,530.6,291.3,528.9,289.8z"/>
		<path class="st2" d="M479,232.1c0,0,6.6,27.8,19.9,36.5c10.5,6.9,23.7,15.5,30,21.1L479,232.1z"/>
		<path class="st2" d="M532.4,227.3l-4.6-4.1C527.9,223.2,529.2,226.1,532.4,227.3z"/>
		<path class="st2" d="M580.6,356.8c0,0-1.2,9.5-1.2,17.3l1.9-19.8C581.1,355.1,580.8,355.9,580.6,356.8z"/>
		<path class="st2" d="M588.9,274.7l-7.6,79.5C590.6,318.7,588.9,274.7,588.9,274.7z"/>
		<path class="st2" d="M571,461.6l4.3-44.8c0,0,0,0.1,0,0.1C570.8,431.4,571,461.6,571,461.6z"/>
		<path class="st2" d="M579.5,378.6c-0.1-1.4-0.2-2.9-0.1-4.6l-4.1,42.7C579.7,402.3,580.2,386.5,579.5,378.6z"/>
		<path class="st2" d="M548.5,431c-0.4-14.6-0.7-21.8-1.6-30.1c-1-9.3-1.8-11.4-2.4-20.5c-0.5-7.9-0.2-10.3-0.6-19.3
			c-0.4-9.1-1-13.9-1.8-21.8c-0.1-0.8-0.2-1.7-0.2-2.7l7,123.6C549,448.5,548.8,438.6,548.5,431z"/>
		<path class="st2" d="M540.2,304.3c0.4,13.4,1.1,24.3,1.8,32.3L540.2,304.3z"/>
		<path class="st2" d="M558.7,509.3l7.4,48.3C566.1,557.6,564,526.8,558.7,509.3z"/>
		<path class="st2" d="M615.2,560.5c-10.1-4.5-12.8-18.5-16.7-13.7c-3.8,4.8-0.1,11.9,0,12.2c-3.7-2.5-8.6-1.2-13.5-0.2
			c-4,0.9-4.4,1.6-7,1.8c-4.5,0.4-8.3-1.3-10.7-2.8l7.1,12.1c-1-0.7-1.8-0.6-1.8-0.6l13.1,42.5l-17.7-5.2
			c7.2-10.9,6.7-24.3,5.9-31.8c-1-9.3-13.5-22.1-14-32.9c-0.4-9.2-9.2-28-11.7-33.2c0.3,0.2,0.7,0.4,1.1,0.4h9.5
			c1,0,1.8-0.8,1.8-1.8V501c0-0.9-0.6-1.6-1.4-1.8c1.9-0.3,3.2-7.8,9.1-8.5c6.3-0.8,10.5-5.8,7.6-10.5c-0.2-0.4-0.6-0.6-1-0.8
			l2.3-0.6c1.4-3.7,1.3-6.7,1.1-8.4c-0.6-4.4-3.1-9.2-4.2-9c-0.2,0-0.3,0.2-0.3,0.3c-1.5,3-15.6,6.1-20.1,2.2
			c-2.9-2.5-5.6-3.2-7.6-2.3c-1.2,0.6-1.6,1.7-2.6,3.2c-1.7,2.6-3.8,3.7-7.6,5.8c-6.7,3.7-9.5,2.8-17.3,6.9c-1.5,0.8-3.7,2-5.2,4.5
			c-1.4,2.2-1.5,4.4-1.5,5c0,0.6-0.1,3.4,1.1,5c1.9,2.5,7.4,2.7,13.2-0.4l0.5-0.1c-0.5,1.5-0.3,2.8,0.7,3.9l19.1,0.1
			c0,0,0.5-5,2.7-6.8c0.9-0.7,2.7-2.2,4.4-4l5.3-1.3c-3.3,1.5-5.7,2.8-5.7,2.8l5.6,13h-9.5c-0.3,0-0.6,0.1-0.8,0.2v-0.6
			c0-1.4-1.1-2.5-2.6-2.5h-17.3c-1.4,0-2.6,1.1-2.6,2.5v6.8c0,1.4,1.1,2.6,2.6,2.6h7.3l-3.4,0.2c-2,14.6,10.6,46.5,11.4,54.3
			c0.8,7.8,3.9,15.3,3.9,15.3c0.7,6.7,2.4,12.8,4.3,18c-1.8,2.8-4.3,3.1-6.1,3.6l-1.8-34c-1.2,22.6,0.8,31.6,1.5,34.1
			c-1.5,0.4-2.4,1.1-1.9,3.5c1.1,5.4-8.5,26.2-9.1,27.4l17.3-34.6c1,2.6,2,5,3,7.1l-0.2,0c-17.7,23.8-35.3,56.8-35.3,56.8
			s-13.4,47.6-13.8,57.2c-0.4,9.6,0.8,43.8,9.6,49.2c2.1,1.3,3.8,1.7,5.3,1.5c0.4,9,9.3,201.5,6.9,208.5c-2.4,7.2-4.9,17.3,2.4,18.5
			c2,0.3,5.1,0.7,8.6,1.1c-3,3.8-11.4,9.9-34.9,15c0,0-12.1,21.9,4.5,21.9c15.3,0,42.6-1.3,46.9-1.5c-9.5,5.4-21.9,15-21.9,15
			s-3.8,18.4,4.2,20.5c7.9,2.1,35.9-0.4,42.2-5.4c6.3-5,20-5,23-4.2c2.7,0.8,8.1-4,5.9-28.8c1.8-0.4,3.2-0.9,3.9-1.6
			c4.9-4.6-13.8-190.3-12.2-205c1.6-14.7,2.4-43.4-1.6-57.3l-0.5,0c2.5-4.3,3-12.2-1.4-25.5c-10.4-31.6-2.1-65.7,5.8-88.3
			c7.9-22.5,0-33.9,0-33.9l-0.1,0c3.8-4.1,15-7.5,15-7.5C642.5,594.2,625.3,565.1,615.2,560.5z M551.9,997.4
			c4.8,0.6,8.8,1.1,10.1,1.6c0.9,0.3,1.2,2.3,1.1,4.9C559.8,1003.4,555.6,1001.8,551.9,997.4z M557.4,1030c-0.5,0.3-1,0.5-1.5,0.8
			l6.8-14.1c0,3.3,0.4,6.1,1.5,7.7C562.2,1026.6,560,1028.7,557.4,1030z M599.3,576.8l0.4,9.4c-3.9,0.5-8.5,3.4-8.5,3.4l-1.3-3.4
			C593.2,583.1,596.7,580,599.3,576.8z M599.4,616c-0.1-0.2-0.2-0.4-0.2-0.6c0,0-16.5-29.4-21.2-39l13.8,23.8
			c0.4-0.2,4.7-2.2,8.3-4.7l0.9,20.9L599.4,616z"/>
		<path class="st2" d="M528.8,131.7c-0.2,16-1.8,30.1,9,28.5c0,0-17,5.2-21-16.8l1.1-24C517.8,119.4,529,115.8,528.8,131.7z"/>
		<path class="st2" d="M540.2,304.3c0,0-8.4-9.5-7.7-13.7c0.6-4.2,34.2-22.4,0-63.3c0,0,9.8-12.4,16.1-10c6.3,2.4,22,6.5,38.1,29.6
			c0,0,4-0.6,4.7,3.9c0.6,4.5,1.5,25.8-8.9,28.1C572.1,281.1,539.7,298.2,540.2,304.3z"/>
		<path class="st2" d="M479,232.1c-11.6,5.4-19.8-19.2-8.2-27.9c11.6-8.8,18.1-23.4,18.1-23.4l1,0.7c1.3-4.6,3.2-11.1,4.8-14.1
			c1.2-2.2,0.7-13.2,0.1-25.4l0.2,10.3c0,0-5.6,3.1-8.4-5c-2.8-8-5.6-16.1-18.6-7.3c0,0-3.6-15.2,26.2-23.4l0,0.1
			c0.2-5.3,0.7-9.4,1.8-11.2c4.7-7.9,7.7-9.4,14.3-10.6c6.5-1.2,34.6-9.4,54.8-11.8c0.1,0,0.2,0,0.3,0l1.3-10.1c0,0,3.1,3.4,4.4,9.2
			c12.7-2.5,8.2-5.8,15.8-5.8c2.1,0,3.6,1,4.7,2.6c0.5-9.3,1.7-15.8,1.9-16.7c-0.9,0.5-18-15.5-28.5,13.3c0,0-18-6.4-8.8-15.5
			c9.2-9,22.5-22,23.2-25.7c0.7-3.7,20-28.1,24-14.8c4,13.3-3,17.1-4.9,22.3c-1.9,5.1-5.5,18.2-5,20.2c0,0,0,0.1,0,0.1l-0.2,20.9
			c0.6,2.6,0.5,5.7-0.1,8.1l-0.2,14.5c-0.6-3.8-1.1-7.6-1.3-11.2c-0.5,0.6-1,1.1-1.6,1.3c-5.1,2-13.6-3.7-18.9-2.4
			c-2.6,12.5-0.4,31.9,0.5,42.1c0.9,10.2-5.9,21-5.9,21c-10.6,23.7-14.5,43-16,52.3l12.2-98.2l-32,42.8c0,0,3.6-26.6,9.6-30.8
			c4.7-3.3,16.2-10.1,22.8-14.7l1.5-12c-12,4.5-34,13.7-42.6,17.2c-11,4.5-2.2,53,0.4,57.4c2.4,4.1,5.7,22.2,0.2,31.9l0.6,0.4
			c-2,8,5.2,20.6,5.2,20.6C500.8,222.7,490.6,226.7,479,232.1z"/>
	</g>
	<path class="st3" d="M539.6,991.3c0,0,6.6,7.5-36.1,21.1c0,0-11,19.8,4,19.3c14.9-0.4,49.2-0.9,49.2-0.9s-24.2,11.4-23.7,19.8
		c0.4,8.4,0.4,18,7.9,16.7c7.5-1.3,30.3,1.3,41.3-8.8c0,0,18.9-4.4,22.4-2.6c3.5,1.8,6.2-28.6,2.6-33.9
		C603.8,1016.8,548,985.6,539.6,991.3z"/>
	<path class="st4" d="M520.3,761.3l8.4,211.5c0,0-8.8,18.9,2.6,21.1c11.4,2.2,39.6-0.9,31.2,15.8c0,0-4.8,16.7,9.2,17.6
		c14.1,0.9,41.3,8.4,40.9-5.3c-0.4-13.6-5.7-111.2-13.2-199.2c0,0,5.3-44.8-3.1-63.3S520.3,761.3,520.3,761.3z"/>
	<path class="st3" d="M548.6,460c0,0-3.7,3.1-7.3,7.6c-3.6,4.5-24.7,7.6-27.2,13c-2.5,5.4-6.3,15.7,9.4,11.4
		c15.7-4.3,52.8-11.3,52.8-11.3s6.3-9.8-2.3-19.2c0,0-9.7,7.9-20.9,1.8L548.6,460z"/>
	<path class="st5" d="M479.1,232.1c0,0,8.5,30.1,18.9,36.1c10.4,6,34.5,25.9,34.5,25.9s20.3-17.6,20.1-28.3
		c-0.2-10.8-15-40.1-17.6-40.8c-2.6-0.7-3.6,6.6-7.2-2.6S478,225.4,479.1,232.1z"/>
	<path class="st5" d="M566.8,72.6c0,0,7.3,12.6,2.8,37.2l1.7,28c0,0-1.1,10.5-6,19.9c-4.9,9.4-17.1,47.9-15.8,60.3
		c0,0,21.6,5.8,37.8,29.3c0,0,6.4,1.3,6.2-5.1c-0.2-6.4,6.2-78.9,8.8-84.2c2.6-5.3-1.7-27.4-4.5-31.9c-2.8-4.5-10.4-46.5-4.1-64.2
		C593.7,61.9,573.9,51.2,566.8,72.6z"/>
	<path class="st5" d="M525.1,176.5c0,0,7.9-48.5,15.6-54.5c7.7-6,29.5-19.9,29.5-19.9l0.9-12l-58.4,23.5
		C512.7,113.7,517,177,525.1,176.5z"/>
	<path class="st3" d="M565.1,75.4c0,0-18-6.4-8.8-15.5c9.2-9,22.5-22,23.2-25.7s20-28.1,24-14.8s-3,17.1-4.9,22.3
		c-1.9,5.1-5.5,18.2-5,20.2C594.1,63.9,576,45.4,565.1,75.4z"/>
	<path class="st5" d="M488.6,186.4c0,0,3.5-14.3,6.1-19.1s-3.3-54,1.4-61.9s7.7-9.4,14.3-10.6c6.5-1.2,34.6-9.4,54.8-11.8
		s13.2-6.7,21.8-6.7c8.6,0,8.4,17.3,3.3,19.4c-5.1,2-13.6-3.7-18.9-2.4s-38.9,15.3-49.9,19.8c-11,4.5-2.2,53,0.4,57.4
		c2.6,4.5,6.3,25.9-1.6,34.4C520.2,204.8,500.2,207.8,488.6,186.4z"/>
	<path class="st5" d="M468.4,140.2c0,0,1.1,14.5-1.8,21c0,0-0.4,1.8,1.8,3.3c2.2,1.5,2.9,4.4,3.5,6c0.5,1.6,2.6,4,2.2,6.6
		c-0.4,2.6,3.5,9.1,16.3,0.9c0,0,1.9-7.8,4.4-10.8l-0.3-15.8c0,0-5.1,4.4-9.5-9C480.5,129.2,468.4,140.2,468.4,140.2z"/>
	<path class="st6" d="M516.8,144.5c0,0,3.8,19.9,21.6,16.7c0,0-10.5,1.9-9.6-19.7c0.9-21.6-1.7-21.8-10-22.9
		C518.7,118.6,513.8,128,516.8,144.5z"/>
	<path class="st6" d="M495.1,153c0,0-5,0.8-7.2-4.1c-2.2-4.9-6.1-20-19.5-8.7c0,0,0.1-13.8,13.3-18.3c13.3-4.5,13.3-4.5,13.3-4.5
		L495.1,153z"/>
	<path class="st7" d="M487.9,184.5c0,0,12.9,25,34.2,19.7c0,0,1.6,15.7,5.8,18.1c0,0-35.4-0.5-48.8,9.7c0,0-12.2,5.1-13.7-12.9
		c0,0-1.2-10.2,8.1-17.3S487.9,184.5,487.9,184.5z"/>
	<path class="st4" d="M532.5,227.1c0,0,8.1-11.7,17-9.1c8.9,2.6,24.7,11.4,37.8,29.3c0,0,4.5,0.3,4.5,6.1c0,5.8-0.2,21-10.2,25.5
		c-10,4.6-38.2,15.8-41.4,23.6c0,0-8.3-7.6-7.9-12C532.7,286.1,565.8,267.3,532.5,227.1z"/>
	<path class="st5" d="M540.6,306.2l4,75.1l2.8,28.9l1.2,49.8c0,0,9.5,11.4,22.8,2.5c0,0-0.9-28.6,5.2-47.1
		c6.2-18.5,2.2-42.8,2.2-42.8s1.8-17.8,4-23.4c2.2-5.5,7.1-59.1,6.8-74.2C589.5,275.1,538.1,296,540.6,306.2z"/>
	<path class="st5" d="M527.8,496.5c0,0-3.5-2.5,0.8-8.1c4.4-5.6,13.5-15.8,13.5-15.8s12.6-1.9,15.1,5.8l-4.4,7.7
		c0,0,21.8-10.8,23.4-5.4s-2.1,8.5-10.4,10.6c0,0-6.2,5.6-6,7.7h-11.4l-1.2-3.3L527.8,496.5z"/>
	<path class="st4" d="M545.8,508.2h-17.3c-1.4,0-2.6-1.1-2.6-2.6v-6.8c0-1.4,1.1-2.6,2.6-2.6h17.3c1.4,0,2.6,1.1,2.6,2.6v6.8
		C548.4,507,547.2,508.2,545.8,508.2z"/>
	<path class="st4" d="M558.7,509.3h-9.5c-1,0-1.8-0.8-1.8-1.8v-6.6c0-1,0.8-1.8,1.8-1.8h9.5c1,0,1.8,0.8,1.8,1.8v6.6
		C560.5,508.5,559.7,509.3,558.7,509.3z"/>
	<path class="st5" d="M561,613.4c0,0-5.5-7.8-8.6-17.4c0,0-4.8,2.9-6.9,3.2c-2.1,0.2-1.5-36.6-1.5-36.6s-13.2-43.9-10.9-55.3
		l25.7,2.1c0,0,7.7,35.9,7.3,46c0,0,3.4,7.1,15.8,3.8c12.4-3.4,22.5-1.1,20.8,9.5s-11.8,16.6-11.8,16.6l0.8,3.8
		c0,0,13.9-7.8,12.2,1.1c-1.7,8.8-13.7,10.7-13.7,10.7s-12.2-29-17.4-31.5C572.7,569.2,579.7,601.8,561,613.4z"/>
	<path class="st6" d="M599.5,560.5c0,0-6.7-10.6,1.2-14.6c0,0,8.4,11.9,13.7,13.3c5.3,1.4,31.4,30.4,3.2,49.9c0,0-17.3,5-16.9,12
		c0,0,0.1-4.3-8.8-19.7c0,0,20.4-11.6,9.8-14.6c0,0-4.5-0.7-10,2.2l-0.8-3.8C590.8,585.2,611.9,569.1,599.5,560.5z"/>
	<path class="st7" d="M552.4,595.9c0,0-2.2,2.2-6.9,3.2c-4.7,0.9,5.9-10.2-11.1,34.6c0,0-12.5,19.1-17.2,34.5s-19.4,53.8-8,85.6
		c11.4,31.8,16.7,5.6,24.4,4.2c7.7-1.3,8.2-5,53.3,10.9c0,0,18,3.2,11.9-22s-13.8-47.4,4.2-95.4c0,0,7.2-18.8,0.5-35.8
		c0,0-1.1,6.9-5-2.4c-4-9.3-22.1-38.5-25.8-44c0,0,6.4,29.1-11.8,44.1C561,613.4,552.9,601.9,552.4,595.9z"/>
	<path class="st8" d="M563.8,1022.6c-0.9-2.4-1.4-4.6-1.4-6.8c0.4-1.9,0.7-3.8,1.2-5.7c0.5-2.3,1.5-4.7,1.1-7.1
		c-0.7-4.6-5.9-6.7-9.7-8c-4.5-1.6-10.1-2.6-14.8-1.5c-4.7,1.1-8.6,5.7-11.9,8.9c-0.9,0.9,0.3,2.4,1.4,1.8c3.2-1.9,6.8-5.6,10.4-6.6
		c1.4-0.4,2.9-0.4,4.5-0.3c0,0.3,0.1,0.7,0.5,0.9c3,1.5,6.8,2.5,9.1,5.1c3.6,4,0.9,8-0.2,12.2c-1,3.7,0.2,8.2-3.8,10.1
		c-2.1,1-4.4,1.3-6.3,2.5c-0.4,0-0.9,0.1-1.3,0.1c-0.4,0-0.7,0.2-0.9,0.5c-2.6,0.2-5.2,0.5-7.8,0.8c-5.6,0.6-11.1,1.3-16.7,0.6
		c-5.4-0.7-14.5,2.4-15.9-5c-0.4-1.9-3.2-1.1-2.9,0.8c0.7,4.4,3.9,7,8.2,7.5c3.5,0.5,7,0,10.6,0.5c3.3,0.5,6.4,0.5,9.8,0.3
		c7.6-0.5,15.1-0.9,22.6-1.6c2.4-0.2,5-0.2,7.2-1.2c2.5-1.1,3.9-4,6.5-4.8c1.5-0.5,1.6-2.3,0.7-3.1
		C563.9,1023.1,563.9,1022.8,563.8,1022.6z"/>
	<path class="st8" d="M559.1,474.6c-1-1.3-2.6-1.9-4.2-2.2c-2.1-0.3-4.5-0.7-6.6-0.4c-1.5,0.2-0.9,2.3,0.3,2.4
		c2.1,0.2,4.2,0.6,6.2,1.2c2.5,0.8,2,3.1,0.4,4.7c-0.8,0.8-0.1,1.8,0.8,1.9c1.6,0.2,2.7-1.7,3.3-2.9
		C560.1,477.8,560.1,476,559.1,474.6z"/>
	<path class="st8" d="M576.1,462.6c-1.3-1.8-3.9-0.7-3.6,1.5c0.4,2.3,0.5,4.6,0.1,7c-0.4,2.4-1.8,3.6-4.1,4.4
		c-2.8,1-4.8,2.7-6.9,4.8c-1.4,1.4,0.5,4.1,2.2,2.9c0.6-0.4,1.3-0.9,1.9-1.2c1.2-0.5,2.8-0.6,3.9-0.8c0.8-0.2,1.6-0.5,2.5-0.3
		c0.8,0.2,1.5,0.7,2.4,1c0.5,0.1,1,0.1,1.4,0c0.7,0.1,1.5-0.1,2-1C580.5,475.2,579.7,467.4,576.1,462.6z"/>
	<path class="st9" d="M592.1,788.9c-1.3-4.7-3-9.4-5.7-13.3c0.3-0.3,0.5-0.8,0.4-1.4c-1.5-5.5-5.4-7.7-10.4-8.8
		c-2.1-1.2-4.4-2-6.8-2.3c-1.7-0.2-3.4-0.1-5,0.1c-3.1-0.9-6.3-1.8-9.3-2.9c-3.6-1.3-6.6-3.3-10-5c-0.7-0.3-1.3,0-1.6,0.5
		c-2.7-1-5.5-1.2-8.8,0.4c-2.9,1.3-5.2,3.5-7.4,5.8c-2.7,2.8-5.7,5.2-8.3,8c-1.2,1.3,0,3.1,1.7,2.8c1.3-0.2,2.4-0.7,3.5-1.4
		c0.2,0.5,0.8,1,1.4,0.5c2.3-1.8,4.6-3.5,7-5.3c2.1-1.6,4.8-4.3,7.6-4.4c4.5-0.2,9,4.7,13.5,5.5c3.3,0.6,6.2,0.1,9.3-0.5
		c0.4,0,0.8,0.1,1.2,0.1c0.9,0.1,1.8,0.2,2.8,0.2c3.1,1,6,2.2,8.8,3.8c14.4,8.3,13.6,27.9,15.7,42.3c0.2,1.5,2.9,1.5,3.1,0
		C595.8,805.6,594.3,797,592.1,788.9z"/>
	<path class="st9" d="M612.1,1014.5c-0.4-19.8-1.4-39.5-2.8-59.3c-2.7-39.2-5.2-78.4-7-117.6c-1.1-22.8,0.2-45.4-0.2-68.2
		c0-2.6-2.5-3.7-4.5-3.1c-1.1-0.7-2.5-0.7-3.7,0.5c-1.3,1.3-2.7,1.6-4.1,1.3c-0.7-1-1.8-1.2-2.8-1c-0.1,0-0.2-0.1-0.3-0.1
		c-2.2-1-4.9,1.1-3.5,3.5c0.2,0.4,0.5,0.7,0.7,1c0,0.3,0.1,0.6,0.3,1c7,16.3,7.1,34.6,6.5,52c-0.7,18.3-1.5,36.4,0.4,54.7
		c3.7,36.8,11.9,73.1,10.3,110.2c-0.2,5.5-0.8,11-1.6,16.5c-0.7,4.5-1.5,9.4-4.4,13.1c-7,9-20.7,6.5-30.3,4.5
		c-1.8-0.4-2.5,2.2-0.8,2.7c6.6,2,13.4,3.8,20.2,3c1.8,0.1,3.6,0.3,5.4,0.4c0.4,0.3,0.8,0.5,1.3,0.5c1.6,0.2,3.3,0.2,4.9,0
		c3.5,0.4,7.5,0.9,10.7-0.3C612.9,1027.4,612.2,1019.7,612.1,1014.5z"/>
	<path class="st10" d="M593.4,61.6c-1-2.5-4.9-2.7-7.2-2.8c-5.6-0.1-15.5,1.4-17.2,7.8c-0.4,1.3,1.7,2.3,2.3,1
		c2.3-4.8,13.5-6.9,18.5-4.4c0.2,3.3-0.4,6.7-0.5,9.9c-0.1,1.5,2.4,1.9,2.6,0.4c0.4-2.5,0.7-5,1.1-7.4
		C593.3,64.8,593.9,62.9,593.4,61.6z"/>
	<path class="st8" d="M592.6,52.2c-0.9,1.7-1.3,3.5-1.5,5.3c-5-2.2-11-2.7-15.9,0.2c-0.1,0.1-0.3,0.2-0.4,0.3
		c-0.3-0.1-0.6-0.1-0.9,0.1c-2,1.1-3.8,2.5-5.6,3.9c-1.4,1.1-3,2.7-3.3,4.5c0,0.1,0,0.2,0,0.3c-0.1,0.1-0.2,0.2-0.2,0.3
		c-0.7,1.1-1.7,3.2-3.2,3.1c-0.2,0-0.5,0.1-0.7,0.2c-0.8-0.3-1.5-0.5-2.3-0.5c-1.2-0.1-1.7,1.5-0.9,2.3c1.5,1.4,3.5,2,5.3,2.8
		c0.5,1.3,2.7,1.8,3.5-0.1c2.1-5.1,4.4-10.8,9.7-13.3c5-2.3,10.5-2.8,15.5-0.3c1.1,0.5,2.3-0.1,2.4-1.4c0.1-2.4,0.7-4.8,0.7-7.2
		C594.7,51.7,593.2,51.2,592.6,52.2z"/>
	<path class="st8" d="M603.6,19.1c-0.6-1.2-2.6-0.4-2.2,0.9c1.1,3.7,1.6,7.3,0.6,11c-0.9,3.5-3,6.2-4.6,9.4c-0.5,1.1,1.1,2.1,1.7,1
		c2.2-3.9,5-7.2,5.8-11.8C605.6,26.1,605.1,22.5,603.6,19.1z"/>
	<path class="st10" d="M604.2,139.4c-2.8-15.1-11.2-28.8-11.1-44.4c0-0.3-0.1-0.6-0.2-0.8c1.5-1.9,2.3-4.3,2.2-6.7
		c-0.1-1.1-1.4-1.5-2-0.6c-1.3,2-1.8,4.6-4.3,5.6c-2.4,0.9-4.8-0.1-7.2-0.6c-3.6-0.9-7.2-0.8-10.9-0.2c-9.1,1.4-18,6-26.6,9.3
		c-4.5,1.7-8.9,3.4-13.4,5.1c-3.7,1.4-7.9,2.6-11.2,4.8c-5,3.3-6.2,10.7-5.9,16.8c-0.7,6.1-0.1,12.6,1.2,18.6
		c-0.5,5.2-0.6,10.3,0,15.6c0.7,5.7,2.4,11.2,3.2,16.8c0.7,4.6,1.6,11.4-0.4,15.8c-3.2,6.7-12.6,3-17.7,0.8
		c-1.7-0.8-3.2,1.6-1.5,2.5c0.6,0.3,1.2,0.6,1.8,0.9c0,0.7,0.4,1.3,1.1,1.6c0.7,0.3,1.5,0.6,2.3,0.9c0,0.5,0.1,0.9,0.6,1.2
		c3.3,1.9,8.8,3.6,13.3,2.9c0.1,0.1,0.3,0.1,0.5,0.1c5.7-0.6,7-6.2,7.7-11.1c0.7-4.6,1.2-11.2-0.9-15.8c0-0.2-0.1-0.4-0.1-0.6
		c0.5-0.2,1-0.5,1.2-1.2c1.2-4.4,1.8-9.5,1.9-14.1c0-0.1,0-0.1,0-0.2c0.4-0.3,0.5-0.8,0.4-1.3c0,0,0,0.1,0,0.1c0-0.1,0-0.2,0-0.4
		c0,0.1,0,0.1,0,0.2c0,0,0,0,0,0c0-0.2,0.1-0.5,0.1-0.7c0-0.3-0.1-0.6-0.3-0.8c-0.2-0.2-0.4-0.4-0.7-0.5c-0.2,0-0.3,0-0.5,0
		c-0.6-0.7-1.4-1.2-2.6-1.3c-1.1-0.1-1.3,1.2-0.8,1.9c2.1,2.6,1,6,0.4,9c-0.3,1.3-0.6,2.7-0.9,4c-0.2-0.5-0.4-1-0.5-1.4
		c0-0.1,0-0.1-0.1-0.1c-0.7-3.5-1.4-7.2-2.5-10.6c0.1-0.1,0.1-0.1,0.2-0.2c0.4-0.7,0.2-1.3-0.1-2c-0.2-0.6-0.3-1.2-0.7-1.7
		c-0.1-0.2-0.4-0.4-0.6-0.5c-0.1-0.6-0.1-1.1-0.2-1.7c0.1-0.1,0.1-0.3,0.1-0.4c-0.4-8.1-2.2-16.3-1.9-24.5
		c0.3-8.3,5.1-14.2,11.7-18.7c1.7-0.6,3.4-1.1,4.9-1.7c8.9-3.4,17.9-6.8,26.8-10.2c3.9-1.5,8-3.3,12.2-4c5-0.8,8.3,2.1,13,2.7
		c1.8,0.2,3.5-0.2,5-1c-0.3,14.6,6.2,27.8,8.9,41.9c1.1,5.7,1,11.2,0.3,16.8c-0.4,0-0.8,0.2-0.8,0.7c-2.5,17.1-4.7,34.3-7.7,51.3
		c-0.7,4-1.5,8-2.2,11.9c-0.2,0.7-0.3,1.4-0.4,2.1c-0.2,1-0.4,1.9-0.7,2.8c-1.2,3.6-3.1,3.5-6.5,2c-2.4-1.1-4.5-1.8-7.1-2.1
		c-3.7-0.3-8.4,0.6-11.4-2c-1.6-1.3-3.8,0.8-2.3,2.3c2.3,2.3,5.2,3.4,8.4,3.8c0.1,0,0.3,0,0.4,0c0.2,0.1,0.4,0.1,0.6,0.1
		c4.1,0.2,7.5,7.8,9.3,10.8c1.1,1.7,2.3,3.9,4,5.2c1.3,3.3,5.4,4.1,8.3,2c4.8-3.5,4.2-13.2,4.7-18.3c1-8.9,1.9-17.9,3-26.8
		c0.5-4.5,1-8.9,1.4-13.4c0-0.1,0-0.3,0.1-0.4c0.2-0.3,0.4-0.7,0.3-1.1c0-0.4-0.1-0.8-0.1-1.2c0.4-3.2,0.8-6.5,0.6-9.7
		c0.7-4.9,1.9-9.8,2.8-14.6C605.3,153.5,605.6,146.6,604.2,139.4z"/>
	<path class="st10" d="M570.7,100.7c-0.1-0.3-0.4-0.5-0.8-0.5c-0.4,0-0.7,0.2-0.8,0.5c-5.5,2.5-10.2,6.4-15.2,9.7
		c-4.9,3.2-10,6.5-14.4,10.3c-3.6,3.2-5.2,7.6-6.7,12.1c-2,6.1-3.7,12.6-4.9,18.9c-0.3,1.4,1.7,2,2.2,0.6
		c3.2-10.3,4.7-23.6,13.4-30.9c4.3-3.7,9-7.1,13.8-10.3c4.5-3,9.4-5.4,13.6-8.9C571.5,101.8,571.2,101.1,570.7,100.7z"/>
	<path class="st10" d="M586.8,318.8c2.4-14.9,4.6-29.8,4.2-45c0-0.8-0.4-1.4-0.9-1.8c0.2-1.7-2.3-2.5-2.8-0.7c0,0.2-0.1,0.3-0.1,0.5
		c-0.3,0.2-0.5,0.4-0.7,0.8c-1.9,3.1-5.1,4.5-8.2,6c-3.5,1.7-7,3.4-10.5,5.2c-6.2,3.2-13,5.8-19,9.4c-8.1,4.9-9.4,13.3-8.6,21.8
		c-0.1,1-0.2,2-0.2,3c0,0.6,0.3,0.9,0.8,1c0.1,0.3,0.1,0.7,0.2,1c0.2,1.3,2.4,1,2.3-0.3c-0.1-2-0.2-4-0.3-6c0.4-1.5,1.1-3,1.9-4.3
		c0.7-0.2,1.4-0.7,1.7-1.7c0.1-0.4,0.2-0.7,0.4-1.1c3.4-3.8,8.2-6.3,13.4-7.5c5.5-1.3,11.3-1.1,16.1-4.1c1.2,8.5-1.7,17-3,25.4
		c-1.2,8.1-1.6,16.3-1,24.5c0.5,8,2.1,15.9,3.5,23.8c0.7,4.1,1.4,8.3,1.5,12.5c0.1,4.8-0.9,9.2-1.6,13.9c-0.1,0.5,0.1,0.9,0.3,1.3
		c-0.3,1.5-0.6,3.1-0.9,4.6c0,0.1-0.1,0.2-0.1,0.3c0,0.2-0.1,0.3,0,0.4c-0.8,4.7-1.4,9.5-2.1,14.2c-0.1,0.5,0,0.9,0.2,1.2
		c-0.4,1.6-0.8,3.1-1.1,4.7c-1.7,7.7-2.9,15.5-3.4,23.3c-0.3,4-0.3,8-0.2,12.1c0.1,3,0.6,3.6-2,4.9c-1.9,0.9-4.3,1.2-6.4,1.8
		c-1.3,0.4-0.7,2.3,0.5,2c3.2-0.8,6.4-1.6,9.6-2.3c0.5-0.1,0.9-0.7,0.9-1.2c-0.2-16.6,2.5-32.4,6.7-48.5c1.9-7.1,3.6-14.3,4.1-21.7
		c0.5-8.2-0.9-16.3-0.9-24.5c0-2.8,0.1-5.6,0.2-8.3c0.4-0.4,0.6-0.9,0.6-1.6c0.1-3.6,0.3-7.2,0.5-10.8c0.1-0.7,0.2-1.4,0.3-2.1
		c0.7-2.2,1.3-4.5,1.8-6.7C585.8,331.9,586.4,325.3,586.8,318.8z"/>
	<path class="st10" d="M547.7,255.3c-1.1-6.8-4.4-13.2-8-19c-3.6-5.7-7.3-11.7-12.9-15.6c-0.9-0.6-2,0-2.4,0.8c-1-0.3-2-0.5-3.1-0.7
		c-0.2,0-0.3,0-0.4,0.1c-0.5,0.1-0.7,0.5-0.7,0.9c-0.6,0-1.2,0.1-1.7,0.1c-2.7,0.2-5.1,0.7-7.8,0.5c-1.7-0.1-2-0.2-3.4,0.8
		c-0.7,0.6-0.3,2,0.6,2.1c1.4,0.3,2.7,0.5,4,0.6c0.2,0.4,0.5,0.7,1.1,0.7c3.2,0.1,6.6-0.4,9.6,0.9c3.4,1.4,5.6,4.5,7.5,7.6
		c3.1,5,5.2,10.7,6.7,16.3c1.8,6.5,2.3,12.8,0.2,19.4c-1.5,4.7-3.8,9-4.1,13.9c-0.7,1.9-1,3.8-1.1,6.1c0,2,2.8,1.9,3,0
		c0.8-6.3,7-11.4,10-16.7C547.9,268.3,548.7,261.7,547.7,255.3z"/>
	<path class="st10" d="M573.2,478.6c-1.9-0.1-1.9,2.8,0,2.9l-0.1,3.7c-0.7,0.7-1.5,1.1-2.4,1.4c-0.8,0.3-1.7,0.5-2.5,0.8
		c-1.8,0.5-3.5,1.3-5.1,2.3c-1.4,1-2.5,2.2-3.5,3.5c-1,1.3-1.8,2.2-2.9,2.9c-0.2-0.2-0.5-0.3-0.8-0.4c-2-0.6-4-0.9-6.1-0.9
		c-0.3-0.5-0.5-1-0.8-1.5c-0.1-0.2-0.3-0.4-0.4-0.5c0.3,0,0.5-0.1,0.8-0.3c2-2,3.7-4.1,6-5.7c1.6-1.1,3.2-2.2,4.8-3.1
		c0.9-0.4,1.7-0.8,2.5-1.4c1.4-0.7,0.4-2.7-1-2.4c-1.6,0.3-3.6,1.1-5.5,2.1c0.2-0.4,0.3-0.9,0.4-1.3c0,0,0,0,0.1-0.1
		c1.7-1.9,1.4-5.2-0.9-6.5c-1-0.6-2.3-0.8-3.5-1c-1.4-0.3-2.9-0.7-4.4-0.7c-1.3,0-1.9,1.9-0.7,2.6c0.9,0.5,1.9,0.9,2.9,1.3
		c0,0.2,0.1,0.5,0.3,0.7c2.3,3.6-2.2,7.5-3.7,10.7c-0.6,1.2-1,2.5-1.4,3.8c-0.1,0.7-0.3,1.4-0.7,2c-1.2,0.3-2.4,0.7-3.6,1.2
		c-1.1,0.5-1.5,2.3,0,2.6c1.4,0.3,3,0.2,4.4-0.3c0.3,0.1,0.6,0.1,0.9,0.1c0.6,1.1,1.5,2,2.8,2c1.4,0,2.8,0,4.1,0.2
		c0.2,0.4,0.7,0.8,1.2,0.9c3.6,0.5,5.5-0.6,7.6-3.3c1.6-2.1,3.6-3.6,6-4.7c1.7-0.7,3.7-0.9,5.3-1.8
		C577.2,487.9,579.8,478.8,573.2,478.6z"/>
	<path class="st10" d="M574,582.7c1-8.7-2.8-15.5-7-22.3c0.3-0.2,0.5-0.4,0.5-0.7c1-7.6-0.8-15-2.1-22.5c-1.7-9.5-3.8-18.9-6-28.4
		c-0.3-1.4-2.4-0.8-2.1,0.6c1.9,9.5,3.4,19.1,5,28.7c0.7,4.7,1.7,9.4,2.1,14.1c0.1,1.2,0,2.4-0.1,3.5c-1.1-1.9-2.2-3.9-3.1-5.9
		c-2.9-6.5-2.6-13.7-5-20.4c-2.5-6.8-5.2-13.5-7.9-20.3c-0.7-1.7-3.5-1-2.8,0.8c2.4,6.3,4.8,12.6,7.2,19c1,2.7,2.1,5.4,2.7,8.3
		c0.7,3.4,0.8,6.9,1.8,10.3c3.5,12.4,15.8,22.2,14.8,35.8c0,0.5,0.4,0.8,0.8,0.9c0.1,0.1,0.3,0.1,0.4,0.1
		C574.1,584.2,574.4,583.2,574,582.7z"/>
	<path class="st10" d="M601.3,586.5c-1.2,0.1-1.9,1.8-0.7,2.5c2.6,1.3-2.6,4.7-3.6,5.8c-0.9,1-1.8,1.8-3,2.6
		c-0.3,0.2-1.1,0.8-1.5,0.8c-0.1,0.4-0.2,0.4-0.3,0c-0.1-0.2-0.2-0.4-0.4-0.6c-1-1.5-3.4-0.2-2.5,1.5c0.9,1.8,1.4,3.3,3.8,2.4
		c2.8-1.1,4.7-3.2,6.7-5.2c1.7-1.7,4.2-2.9,4.6-5.6C604.9,588.6,603.5,586.3,601.3,586.5z"/>
	<path class="st10" d="M596.7,557.6c-1.2-0.1-1.3,1.5-0.6,2c3.7,2.7,3.8,8.9,2.5,12.9c-1.5,4.2-5.1,7.5-7.8,10.9
		c-0.8,1,0.5,2.4,1.5,1.5c4.9-4.3,10.2-9.3,10.7-16.2C603.3,564,602.2,558.1,596.7,557.6z"/>
	<path class="st11" d="M518.4,149.1c0,0,4.1,14.9,19.6,12c0,0-2.5-0.2-4.9-2.4c-2.5-2.3-4.9-6.6-4.4-14.9
		c0.9-16.3-0.5-19.7-1.6-21.1c-1.1-1.4,1.9,3.9,0.5,14.7s-0.3,16.4,1.6,18.8C531,158.6,526,161.2,518.4,149.1z"/>
	<path class="st11" d="M628.2,573.4c-1.3-5.3-6-9.7-10-13.1c-5.8-4.9-11.9-8.9-16.5-15c-1-1.3-3.1-0.2-2.2,1.3
		c3.4,5.7,7.9,10,13,14.2c2.7,2.2,5.4,4.3,7.7,6.9c0.9,1,1.7,2.1,2.4,3.2c0.4,2.8,1,5.6,1.6,8.5c0.8,4.1,0.3,7.7-0.7,11.7
		c-1,3.9-2,7.7-4.7,10.9c-2,2.3-4.6,4.2-7.1,6c-0.3-0.2-0.8-0.3-1.2-0.1c-1.5,0.7-2.7,2.1-4.1,3.1c-1.4,1-2.9,1.7-4.4,2.6
		c-0.2,0.1-0.3,0.3-0.4,0.4c-0.4-0.1-0.8-0.3-1.2-0.6c-0.6-0.5-1.4-0.4-1.9,0c-0.1,0.1-0.3,0.2-0.3,0.3c-0.2,0.4-0.3,0.9,0,1.4
		c0.5,0.9,1,1.6,1.6,2.4c0.1,0.1,0.1,0.2,0.2,0.3c0,1.6,2.2,2.1,2.9,0.4c0.9-2.3,6-3.8,8-4.5c2.3-0.9,4.7-1.7,6.9-2.9
		c4.1-2.3,7.3-5.9,9.6-10C631.4,593.9,633.6,580.5,628.2,573.4z"/>
	<path class="st11" d="M607,589.1c-0.1-1.5-2.2-1.9-2.6-0.4c-0.5,1.4-0.5,2.8-1.4,4c-0.8,1-2,1.8-2.9,2.8c-2,2.2-3.6,4.5-6.6,5.3
		c-0.1,0-0.1,0-0.2,0c-0.1,0-0.2,0-0.2,0c0,0-0.3,0.1-0.1,0c-0.2,0-0.3,0-0.5,0c-0.5,0-1,0.4-1,1c0,0.5,0.4,1,1,1c0.1,0,0.1,0,0.2,0
		c0,0.2,0,0.5,0.1,0.8c0.3,0.7,0.8,1.2,1.4,1.6c0.6,0.9,1.1,1.9,1.5,3c0,0.1,0,0.3,0,0.4c0,0.1,0.1,0.2,0.1,0.4c0,0,0,0,0,0
		c0,0.1,0,0.2,0,0.3l0.3,0.8c0.1,0.2,0.2,0.4,0.4,0.6c0.2,0.1,0.5,0.2,0.7,0.1c0.4-0.1,0.7-0.5,0.7-0.9c0.1-0.1,0.1-0.3,0.1-0.5
		c-0.5-4.2,0.9-7.9,3.7-11c0.3-0.3,0.4-0.7,0.3-1.1c0.1-0.1,0.1-0.1,0.2-0.2C604.9,594.8,607.3,593,607,589.1z"/>
	<path class="st12" d="M526.6,218.3c-2.1-2.1-2.6-6.7-3.4-9.8c0.7-1.6,0.3-2.5-0.4-4.1c-0.4-0.8-1.6-1-2.3-0.6
		c-1.6,0.9-4.8,0.7-6.5,0.7c-2.2,0-4.3-0.6-6.4-1c-5-2.7-9.4-7.1-12.6-10.8c-0.6-0.7-2,0-1.7,1c2.8,6.9,10.3,14,18.3,16.5
		c1.4,0.6,2.8,1.2,4.1,2.1c0.9,0.7,6.5,6.4,2.5,7.1c-2.2,0.4-1.2,3.7,0.9,3.3c1.7-0.3,3.3-0.5,5-0.7l0.9,0
		C527,221.9,528,219.6,526.6,218.3z"/>
	<path class="st12" d="M513.3,221.5c-7.2-0.2-14.4,0.7-21.1,3.6c-1.1,0.5-0.3,2.4,0.8,2c6.6-2.3,13.4-2.5,20.2-3.3
		C514.7,223.6,514.8,221.6,513.3,221.5z"/>
	<path class="st12" d="M598.8,740.8c-1.9-5.4-4.2-10.5-5.1-16.2c-0.3-2-0.6-4-0.8-6.1c0-1.3-0.1-2.6-0.2-4
		c-0.2-4.8,0.6-9.6,0.2-14.3c-0.1-1.8-2.6-2.2-3.1-0.4c-1.2,3.7-1.2,7.8-1.8,11.6c-0.5,3-0.8,6-0.8,9.1c-0.1,7.1,0.7,14.2,2,21.1
		c0.7,3.6,1.7,7.3,0.8,11c-1.2,5.2-5.2,5.4-9.7,5.7c-0.7,0-1.4,0.1-2.1,0.1c-3.8-0.5-7.6-0.8-11.4-1.5c-5.3-0.9-10.6-1.9-15.9-3
		c-5.1-1-12.8-3.1-16.8,1c-0.3,0.2-0.7,0.4-1,0.7c-0.4,0.3-0.4,0.7-0.3,1.1c-0.1,0.2-0.2,0.4-0.3,0.7c-0.4,1,1.2,1.9,1.8,1.1
		c0.7-0.9,1.5-1.5,2.2-2c4.9-1.3,11.5,2,16,3.4c5.7,1.7,11.2,3.9,16.9,5.5c5.4,1.5,10.8,3.1,16.3,4c4.4,0.7,8.4,1.1,11.7-2.2
		C604.5,759.9,601.7,749.1,598.8,740.8z M590.8,762.8c0.9-0.5,1.8-1.1,2.5-1.8C592.7,762,591.9,762.5,590.8,762.8z"/>
	<path class="st12" d="M605,618.3c-0.9-2.5-5.5-2.4-5.1,0.7c0.6,5-0.2,9.6-2.3,14.2c-1.8,4-5,7.3-6.3,11.4c-0.5,1.7,1.7,3.7,3.3,2.5
		c3.4-2.6,5.5-6.8,7.3-10.7c-1.5,13.9-9,27.7-10.5,41.4c-0.2,1.7,2.7,2.1,3,0.4C597.9,658.2,613.1,639.1,605,618.3z"/>
	<path class="st12" d="M589.5,595.7c-2.6-4-5.4-8-7.9-12c-1.5-2.4-3-4.9-4.1-7.5c-0.8-2-1.2-4-2.5-5.8c-0.6-0.9-2-0.6-2.1,0.6
		c-0.2,3.6,2.1,7.3,3.5,10.6c1.8,4.1,4.1,8.1,6.5,11.9c5.3,8.4,11.8,16.6,12.5,26.8c0.1,1.8,2.4,2,3.1,0.4
		C601.7,612.5,593.6,602.2,589.5,595.7z"/>
	<path class="st12" d="M580,640.1c-1.6-1.8-3.8-3-5.4-4.8c-1.7-1.8-3.2-3.9-4.4-6.1c-0.9-1.7-4-0.5-3.2,1.4c0.1,0.1,0.1,0.3,0.2,0.4
		c0,0,0,0,0,0c0,0,0,0,0,0c1.7,4,4.3,7.5,7.3,10.6c-1.2,0-1.2,1.9,0,1.9c0.7,0,1-0.6,0.9-1.1c0.7,0.4,1.5-0.1,1.7-0.8
		c0.5,0.3,1,0.6,1.6,0.8C580,643.1,580.8,641.1,580,640.1z"/>
	<path class="st9" d="M590.5,248.6c-1.7-3.3-5-5.8-7.1-8.9c0,0-0.1-0.1-0.1-0.1c-1.4-2.8-3-5.5-4.4-7.9c-1.7-2.8-3.8-5.8-6.9-7.1
		c-1.8-0.8-3.6-0.7-5.5-0.9c-2.5-0.3-4.7-1.5-6.9-2.6c-1.5-0.8-3,0.8-2.3,2.3c3.1,6.1,10,4,14.1,8.6c2.3,2.6,3.7,6,5.2,9.1
		c1.6,3.3,3.3,6.7,4.5,10.2c2.9,8.8-1.5,15.8-7.9,21.3c-3.3,2.3-6.8,4.4-10.5,6.6c-5.7,3.3-13.4,7.6-16,14c-0.4,1,1,1.6,1.6,0.9
		c0.7-0.6,1.3-1.3,2-1.9c0.3,0.1,0.6,0.1,1-0.1c9.5-4.7,19.2-9.1,28.6-14c3.5-1.8,6.1-4.1,8-6.8c0,0,0.1,0,0.1-0.1
		c2.1-1.8,3.2-4.2,3.4-6.9c0-0.3-0.1-0.6-0.2-0.9c0.3-1.2,0.4-2.4,0.6-3.7C592,256.1,592.2,251.8,590.5,248.6z"/>
	<path class="st9" d="M549.9,252.8c-0.4-4.7-1.7-9.2-3.7-13.4c-1.8-4-4.5-9.9-8.8-11.8c-1.2-0.5-2.8,0.4-2.3,1.8
		c1.1,3.5,4.1,6.4,5.9,9.7c2.2,4.1,3.6,8.5,4.4,13c1.6,8.9-0.1,18-5.5,25.3c-0.8,1.1,1,2.4,1.8,1.4
		C548.1,271.7,550.7,262.3,549.9,252.8z"/>
	<path class="st9" d="M535.9,281.5c-2,2.2-3.1,4.7-3.3,7.6c-0.2,0.4-0.3,0.9-0.5,1.3c-0.8,2.3-1.1,3.9,1.2,5.2
		c1.7,0.9,3.1-1.6,1.5-2.5c-0.3-0.2-0.3-0.8-0.1-1.4c0.2-0.2,0.4-0.5,0.4-0.9c0-0.1,0-0.2,0-0.4c0.3-0.7,0.6-1.3,0.7-1.7
		c0.7-1.8,1.5-3.6,2.4-5.4C538.9,281.8,537.1,280.1,535.9,281.5z"/>
	<path class="st9" d="M563.5,972.4c-0.8-1.4-2.7-0.4-2.4,1c0.5,2.6-0.2,5.3-1,8.1c-0.2,0.2-0.4,0.5-0.5,0.8c-0.2,0.7-0.3,1.3-0.4,2
		c-0.5,1.6-1,3.2-1.3,4.7c-0.6,0.6-1.6,0.9-3.3,0.8c-3.9-0.2-7.3-0.6-11.2,0.3c-0.7,0.2-1.2,0.6-1.4,1.2c-5.1-0.2-10.3-0.7-13.1-4.1
		c-0.6-0.8-2.2-0.4-2.3,0.6c-1,5.8,5.6,6.8,10,7.2c7.6,0.6,19.5-0.7,24.5,6.2c1.2,1.7,4,0.2,2.9-1.7c-0.2-0.4-0.5-0.8-0.8-1.1
		c-0.2-0.8-0.4-1.5-0.6-2.3c0.1-0.3,0.2-0.5,0.2-0.8c0-1-0.2-1.8-0.7-2.4c0-0.4-0.1-0.8-0.1-1.2c0.1-0.1,0.1-0.2,0.2-0.3
		c1.2-2,1.2-4.8,1.1-7.2c0.4-1,0.7-2,0.9-2.8C565,978.1,565.2,975.3,563.5,972.4z"/>
	<path class="st8" d="M575.5,463.3c-1-2.4-2.8-2.3-5.1-1.5c-4.4,1.6-9.2,4.4-13.9,2c-1.4-0.7-2.6,1.3-1.2,2.1c2.2,1.3,4.5,1.6,7,1.3
		c1.7-0.2,3.3-0.7,4.9-1.2c0.9-0.3,5.2-2.4,6.1-1.5C574.1,465.5,576,464.6,575.5,463.3z"/>
	<path class="st8" d="M609.6,1031.1c-0.1-1.7-2.1-3.3-3.6-2.1c-2.1,1.5-7.2,0.4-9.7,0.3c-3.2-0.1-6.3-0.2-9.5-0.3
		c-7.2-0.2-12.8-1.1-19.4-4.4c-2.4-1.2-4.4,2.2-2.1,3.6c3,1.8,6.2,3.6,9.6,4.6c0,0,0,0,0,0c4.8,2.2,9.7,3.8,14.9,4.2
		c1.4,0.1,2.9,0.1,4.4,0.3c0.2,0.2,0.5,0.3,0.9,0.4c0.4,0.1,1.1,0.2,2,0.3c1.1,0.5,2,1.2,2.7,2.4c0.8,1.4,1,3.6,0.6,5.6
		c-1.8,3.9-5.3,6.2-9.4,7.3c-6.5,1.8-13,2.1-18.7,5.8c-0.2-0.1-0.4-0.1-0.6-0.1c-0.3-0.2-0.8-0.3-1.3-0.1
		c-6.6,2.1-13.4,2.8-20.2,3.6c-3,0.3-5.9,0.7-8.9,1c-2.1,0.2-3,0.7-4.8-1.1c-0.6-0.6-0.9-1.6-1.5-2.2c-0.8-0.9-2.3-0.2-2.3,1
		c0,0.6,0,1.1,0.1,1.6c0,1.4,0.9,2.9,1.7,3.9c1,1.3,2.8,3,4.5,2.3c0.1-0.1,0.2-0.1,0.3-0.2c8.8,0,17.7-0.6,26.5-1.8
		c3.8-0.5,7.2-1,10.6-2.9c4.2-2.3,8.2-4.2,13-5.2c5.9-1.2,15.1,1.5,18.5-4.8c1.4-2.6,1.4-5.9,1.7-8.7
		C609.8,1040.5,609.8,1035.8,609.6,1031.1z"/>
	<path class="st13" d="M581.2,30.4c-2.4,4.4-4.9,8.3-8.6,11.7c-3.5,3.3-7,6.7-10.4,10.1c-3.9,4.1-13.1,12.3-7.2,18.1
		c0.9,0.8,1.9,0.5,2.5-0.2c0.9,0.4,2-0.5,1.4-1.5c-2-3.2,0.1-5.7,1.8-8.1c0.1-0.1,0.2-0.3,0.2-0.4c2.2-2.9,4.5-5.7,6.9-8.5
		c1.8-1.7,3.3-3,4-3.8c4.6-4.7,9.2-10.6,11.5-16.7C583.7,30,581.8,29.3,581.2,30.4z"/>
	<path class="st13" d="M598.4,15.1c-2.1-0.5-4,0.5-5.7,1.6c-1.7,1.1-3.3,2.2-4.4,4c-0.6,1,0.8,2,1.6,1.2c2.1-2,5.1-4.5,8.1-4.5
		C599.5,17.5,599.8,15.5,598.4,15.1z"/>
	<path class="st13" d="M597.3,31.1c-4.4-0.1-4.9,5.3-6.9,8.2c-2.8,4.1-4.9,8.1-5.4,13c-0.1,1.3,2,1.6,2.3,0.3c0.9-3.5,2-6.9,4.1-10
		c0.9-1.3,2.1-2.5,2.9-3.9c0.9-1.4,1.5-4.5,3.4-4.9C599.4,33.6,598.9,31.1,597.3,31.1z"/>
	<path class="st13" d="M522.8,474.7c-2.7,0.6-6.2,2.4-8.4,4.2c-2.1,1.8-2.8,4.4-3.2,7.1c-0.2,1.3,1.7,1.9,2,0.6
		c0.7-2.5,1.4-4.9,3.7-6.3c2.2-1.3,4.7-2,6.8-3.4C524.9,476.1,524.2,474.4,522.8,474.7z"/>
	<path class="st13" d="M549.7,461.4c-0.3-0.4-0.6-0.8-0.9-1.2c-0.5-0.8-1.7-1-2.4-0.3c-1.9,2-3.6,4.1-5.4,6c-2,2.1-4.7,3-7.2,4.4
		c-1.2,0.7-0.1,2.3,1,1.8c2.6-1.1,5.2-1.8,7.4-3.6c1.9-1.5,3.5-3.3,5.1-5.2c0.1,0.1,0.1,0.1,0.2,0.2
		C549,464.9,551,462.8,549.7,461.4z"/>
	<path class="st13" d="M538.8,472.4c-2,1.1-3.7,2.7-5.4,4.1c-1.1,0.9-2,1.8-3.4,2.3c-1,0.3-2.2,0.5-3.2,0.7
		c-1.1,0.2-0.8,1.9,0.3,1.9c2.5,0.1,4.5,0,6.6-1.5c2.2-1.6,4.8-3.4,6.6-5.5C541.2,473.3,540,471.7,538.8,472.4z"/>
	<path class="st13" d="M547.4,467.5c-0.4-0.5-1-0.6-1.6-0.3c-0.3,0.2-0.6,0.4-0.9,0.6c-0.3,0.2-0.6,0.4-0.9,0.6
		c-0.5,0.4-0.8,1.1-0.4,1.7c0.3,0.5,1.1,0.9,1.7,0.4c0.3-0.2,0.6-0.5,0.9-0.7c0.4-0.3,0.8-0.5,1.1-0.8
		C547.7,468.7,547.8,468,547.4,467.5z"/>
	<path class="st13" d="M519.5,1004.4c-4.7,3.3-10,4.3-15.1,6.7c-4.2,2-5.1,5.3-5.5,9.7c-0.1,1.6,2.3,1.5,2.4,0
		c0.4-3.6,1.3-6.2,5-7.5c1.9-0.7,4-1.1,5.9-1.6c3.3-0.8,6.9-2.1,9-4.9C522.4,1005.6,521.1,1003.3,519.5,1004.4z"/>
	<path class="st13" d="M535,1005.3c-3,1.1-5.5,3.1-8,5.1c-2.4,1.8-7.5,6.8-10.3,3.1c-0.8-1-2.4-0.1-1.7,1c5.2,8.2,15.6-4.6,20.8-6.5
		C537.5,1007.4,536.7,1004.6,535,1005.3z"/>
	<path class="st13" d="M555.6,1029.9c-6.4,4.3-13.3,8.3-19.2,13.3c-1.5,1.2-2.6,2.6-3.4,4.1c-0.1,0.2-0.2,0.3-0.3,0.5
		c-1,2.2-1.3,4.7-0.7,7.4c0.1,0.2,0.2,0.4,0.3,0.5c0.1,1,0.2,2,0.4,3c0.4,1.9,3.7,2,4,0c0.7-4.8,4.4-5,8.4-6.3
		c3.7-1.2,7.3-2.4,11-3.6c1.7-0.5,1.9-3.3,0-3.7c-2.6-0.5-4.6-0.2-7.1,0.9c-0.5,0.2-1.1,0.5-1.9,0.9c-3.1,0.7-6.3,1.3-9.2,2.3
		c-0.3,0-0.5-0.1-0.8-0.2c0.2-0.5,0.4-1.1,0.7-1.7c0.1-0.3,0.2-0.7,0.1-1c1.7-1.6,3.9-2.9,6.1-4.3c4.6-2.9,9.1-5.9,13.6-8.9
		C559.5,1031.8,557.6,1028.6,555.6,1029.9z"/>
	<path class="st13" d="M572.4,1034.1c-2.4-0.5-4.5,0.2-6.4,1.7c-1.1,0.9-2,2.1-2.9,3.2c-0.1,0.1-0.2,0.2-0.3,0.4
		c-0.5,0.6-1,1.2-1.5,1.8c-0.3,0.3-0.7,0.5-1,0.8c-0.1,0.1-0.2,0.2-0.2,0.3c-1.6,1.4,0.1,4.3,1.9,2.9c1.3-1,2.3-2.2,3.4-3.4
		c0.6-0.4,1.1-0.8,1.7-1.3c0.7-0.5,1.4-1,2.1-1.7c0.2-0.2,0.3-0.4,0.4-0.6c0.7-0.6,1.4-1,2.3-0.9
		C573.6,1037.6,574.6,1034.5,572.4,1034.1z"/>
	<path class="st13" d="M563.4,1024.4c-0.4-0.1-0.9,0-1.2,0.3l-0.3,0.2c-0.5,0.2-0.9,0.4-1.3,0.6c-0.6,0.3-1.3,0.7-1.7,1.3
		c-1.5,1.2,0,3.6,1.8,2.7c1.4-0.6,2.7-1.3,4-2.1C566.3,1026.5,565.2,1023.9,563.4,1024.4z"/>
	<path class="st14" d="M529,90.1c-4.1,1.1-8.2,2-12.3,3c-4.7,0.8-10.2,1-14.3,3.4c-4.4,2.5-6.8,7.3-7.8,12.1
		c-1.2,6.2-0.6,12.7-0.7,18.9c-0.1,7.5,0,14.9,0.1,22.4c0,1.4,2,1.3,2.1,0c0.6-9.5,1-19.1,1.7-28.7c0-0.3,0.1-0.5,0.1-0.8
		c0.6-5.2,0.3-11.7,3.4-16.1c2.6-3.7,7.3-5,11.5-6.2c1.1-0.2,2.2-0.5,3.3-1c4.6-1.4,9.1-3.1,13.7-4.5
		C531.4,92.2,530.7,89.7,529,90.1z"/>
	<path class="st14" d="M590.9,75.6c-0.2-0.1-0.3-0.1-0.5-0.2l0,0c0,0,0,0,0,0c-4.2-1.7-7.5,0-10.8,1.8c-3.4,1.1-6.8,2.1-10.2,3.1
		c-7.4,2.1-15.5,3.4-22.5,6.4c-1.6,0.7-0.7,3.2,0.9,3.2c6.8,0,14-2.4,20.5-4.2c3.3-0.9,6.5-1.9,9.8-3c3.1-1,8.1-3.9,11.3-3.3
		C591.5,79.8,593.2,76.6,590.9,75.6z"/>
	<path class="st14" d="M568.9,94.8c-10.3,3.2-20.4,7.2-30.6,10.9c-7.3,2.7-14.7,5.7-19.7,12c-1,1.3,0.7,3.1,1.8,1.8
		c5.7-6.7,14.1-9.1,22.1-12c9-3.3,18.2-6.3,27.1-9.9C571.4,96.9,570.8,94.2,568.9,94.8z"/>
	<path class="st14" d="M574.3,134c-1-0.8-2.6-0.6-2.9,0.8c-0.6,2.4-0.4,4.8-0.5,7.2c-0.6,2.6-1.3,5.1-2.5,7.6
		c-0.2,0.4-0.4,0.8-0.6,1.2c-1.1,2-2.2,3.9-3.2,5.9c-3.6,7.2-6.3,14.6-8.4,22.4c0,0.1,0,0.3,0,0.4c-0.4,0.1-0.7,0.3-0.8,0.7
		c-0.3,0.7-0.5,1.4-0.8,2.1c-0.1,0.2-0.1,0.3,0,0.5c-0.3,0.7-0.6,1.3-0.8,2c-0.1,0.2-0.1,0.4,0,0.6c-0.5,1.2-1,2.4-0.9,3.7
		c0.1,1.3,1.9,2.1,2.6,0.7c0.5-1,0.6-2.1,0.6-3.2c1-2.1,1.9-4.1,2.8-6.2c0.1-0.1,0.3-0.3,0.3-0.5c3.4-9.1,7.7-17.8,12.5-26.2
		C574.5,149,580.1,138.5,574.3,134z"/>
	<path class="st14" d="M572.8,104.3c0-1.4-2.2-2.2-2.8-0.8c-3.3,7.4-2,18.1,0.4,25.7c0.3,1,2.1,0.9,2-0.3c-0.3-4.1-0.7-8.2-0.6-12.3
		C571.9,112.5,573,108.4,572.8,104.3z"/>
	<path class="st14" d="M553.1,193c-3.5,3.9-7.4,13.6-5.5,19.9c0.1,3.8,1.2,7,4.6,7.5c2,0.3,3-2.6,0.9-3.1c-0.1,0-0.2-0.1-0.3-0.1
		c0.3-0.4,0.3-1-0.1-1.5c-0.6-0.6-1-1.2-1.4-1.8c-0.3-4.6,1.9-12.4,2-14.5c0-0.1,0-0.1,0-0.2c0.7-1.7,1.4-3.4,1.8-4.9
		C555.3,193.1,553.9,192.1,553.1,193z"/>
	<path class="st14" d="M497.5,164.8c0-1.7-2.4-1.9-2.9-0.4c-1.6,4.4-3.1,8.6-4.9,13c-1.4,3.3-2.7,6.5-1.6,10c0.5,1.8,3.3,1,2.8-0.8
		c-1.1-4.3,2.4-9.2,4.1-13C496.2,170.8,497.5,168,497.5,164.8z"/>
	<path class="st14" d="M509.2,273.3c-3.5-2.9-7.2-5.4-10.5-8.4c-2.5-3.5-4.9-7-6.7-11.1c-3.2-7-6.2-14.8-8-22.3
		c-0.5-2.1-3.2-1.7-3.8,0c-1.5-0.3-3.2,0.8-2.5,2.7c3,8.5,6.5,17.3,11.1,25.1c1.9,3.3,4.3,5.9,7.1,8.1c1.7,2,3.7,3.9,6,5.4
		c0.5,0.4,1.2,0.1,1.6-0.4c1.5,0.8,3,1.6,4.6,2.5C509,275.3,510.1,274.1,509.2,273.3z"/>
	<path class="st14" d="M552.7,414.9c-0.2-7.1-0.9-14.2-1.7-21.3c-0.6-6.1-1-12.5-2.2-18.5c0.5,0,0.9-0.3,1.1-0.8
		c0.5-1.5-0.3-3.4-0.8-4.8c-0.7-1.7-1.4-3-2.8-4.2c-0.8-0.7-2.1-0.1-2,0.9c-0.2,0.1-0.4,0.3-0.5,0.7c-0.1,0.3-0.1,0.6-0.2,0.9
		c-0.1,0.4,0,0.7,0,1.1c-0.2,0.2-0.3,0.5-0.3,0.9c-0.3,6.5,0.8,13.3,1.3,19.8c0.5,6.6,1.1,13.2,1.5,19.8c0.9,13.2,1.6,26.5,1.7,39.7
		c0,0.3,0.1,0.5,0.3,0.7c-0.2,1.5-0.6,2.9-1,4.3c-0.5,1.4,1.7,2,2.2,0.6c2.1-5.5,2.2-11.7,2.6-17.5
		C552.5,429.7,552.9,422.3,552.7,414.9z"/>
	<path class="st14" d="M544.9,322.4c-0.2-1.6-2.7-1.1-2.7,0.4c-0.3,10.7-1.7,22.2,0.5,32.8c0.2,1.1,2.2,0.9,2-0.3
		C543.4,344.3,546.5,333.3,544.9,322.4z"/>
	<path class="st14" d="M546.2,472.3c-6.3-2-11.4,6.5-14.8,10.5c-2.8,3.3-8.3,8.5-4.8,13c0.6,0.7,1.9-0.1,1.6-0.9
		c-1.5-4.2,3.6-8.5,6.3-11.3c2.5-2.7,6.9-9.1,11-8.5C547.3,475.4,548.1,472.9,546.2,472.3z"/>
	<path class="st14" d="M562.2,613.1c-3.4-8.2-6.8-16.5-8.7-25.2c-2.1-9.1-2.5-18.4-4.9-27.5c-2.2-8.4-5.9-16.2-8.7-24.3
		c-3-8.9-3.4-17.7-4.4-26.9c-0.2-2.1-3.3-2.2-3.3,0c-0.3,8.7,0.6,17.4,3.1,25.7c1.3,4.2,2.9,8.3,4.5,12.4c-0.3,0.3-0.5,0.7-0.3,1.2
		c6.4,15.9,2.2,33.3,4,50c0.2,1.7,2.6,1.8,2.7,0c0.4-9.2-0.3-18.6-0.2-27.8c0-1,0-2,0-3c1.3,7.1,2,14.3,3.7,21.3
		c2.1,8.9,5.6,17.3,10.3,25.1C560.8,615,562.7,614.3,562.2,613.1z"/>
	<path class="st14" d="M588.8,556.5c-3,0-5.5,1.6-8.3,2.4c-4.2,1.2-8.3,0.5-12.1-1.5c-0.8-0.4-1.9-0.1-2.1,0.8
		c-0.2,0.9-0.3,1.5-0.3,2.4c-0.1,1.5,2.4,1.8,2.6,0.4c0-0.1,0-0.2,0-0.3c2.8,1.3,5.9,1.9,9,1.7c4-0.3,7.5-2.4,11.5-3.2
		C590.6,558.8,590.2,556.5,588.8,556.5z"/>
	<path class="st14" d="M471.1,137.9c-4.6,1.1-3.4,6.6-3.4,10.1c0,3.2-0.4,6.3-1.3,9.4c-0.6,2.2-1,3.8-0.5,6c0.4,1.5,2.8,1.2,2.7-0.4
		c-0.2-3.8,2.1-7.6,2.7-11.4c0.6-3.9-0.6-7.9,1.4-11.6C473.3,138.9,472.3,137.6,471.1,137.9z"/>
	<path class="st14" d="M481.2,179.6c-1.6-0.3-4.1,0.4-5.1-1.2c-0.4-0.7-0.1-1.7-0.2-2.5c-0.1-0.9-0.2-1.5-0.8-2.1
		c-0.8-0.8-1.9,0.1-1.8,1c0.2,1.1-0.2,2.3-0.1,3.4c0.1,1,0.7,2,1.5,2.7c1.7,1.5,4.5,1.9,6.5,1C482.2,181.5,482.5,179.9,481.2,179.6z
		"/>
	<path class="st5" d="M496.8,157.3c0-1.2,0.1-2.3,0.1-3.5c0-3-3.9-3-4.7-0.5c-0.8-0.4-1.5-1-1.8-2.1c-0.2-0.9-0.8-1.5-1.5-1.9
		c-1.1-3.7-2.7-8-6.8-8.7c-1.2-0.2-2.1,0.5-2.2,1.7c-0.1,1.5,0.3,2.7,1,4c1.1,2.1,1.7,3.7,2.5,5.9c0.4,1.2,1.1,2,1.9,2.5
		c0.6,1.1,1.4,1.9,2.5,2.7c0.8,0.5,2.2,0.7,2.9,1.3c0.3,0.1,0.6,0.2,0.9,0.3c0,0.9-0.1,1.8-0.1,2.7c-0.2,3.4,5,3.3,5.2,0
		C496.7,160.5,497,158.8,496.8,157.3z"/>
	<path class="st10" d="M489.9,118.3c-5,2.7-10.9,2.7-15.3,6.7c-3.7,3.4-7,8.6-7.5,13.6c-0.2,1.9,2.8,2.2,3.3,0.4
		c1.2-4.7,4.6-10.5,9.1-12.8c4.1-2,8.2-2.7,11.9-5.4C493,119.8,491.6,117.4,489.9,118.3z"/>
	<path class="st10" d="M494.5,150c-2.7-0.2-2.9-2.5-3.9-4.5c-0.9-1.8-1.9-3.5-3.2-5c-2.2-2.7-5.3-5.5-8.9-5.6
		c-1.3,0-1.4,1.7-0.3,2.1c4.8,1.7,8.4,7,10,11.7c1.2,3.3,2.8,5.5,6.6,4.1C496.3,152.2,496.1,150.1,494.5,150z"/>
	<path class="st10" d="M604.1,563.3c-0.7-3.8-3.8-6.3-5.1-9.9c0-0.9,0.1-1.9,0.3-2.6c0.5-1.7,1.9-2.9,2.4-4.7
		c0.4-1.8-1.8-2.6-2.9-1.2c-1.8,2.3-3.4,3.7-3.5,6.9c-0.1,2.5,0.5,5.3,2.1,7.3c0.4,0.5,1,0.6,1.5,0.4c2.3,4.5,2.1,8.5,0.1,13.3
		c-0.2,0.5-0.3,0.9-0.2,1.3c-0.2,0.4-0.4,0.8-0.7,1.2c-1.5,2.2-3.6,4-5.1,6.2c-0.9,1.2,0.9,2.3,1.9,1.5c2.5-2,5-4.5,6.6-7.3
		c0.5-0.2,1-0.6,1.2-1.4c0.7-2.1,1.4-4.1,1.4-6.2C604.4,566.5,604.4,564.9,604.1,563.3z"/>
	<path class="st15" d="M489,187.4c0-0.4,0.1-0.8,0.1-1.2c0-1.6-2.2-2.2-3-0.8c-1.3,2.4-2,4.9-3.6,7.1c-1.9,2.6-4.4,4.4-7,6.2
		c-3.6,2.6-6.8,5.3-8.8,9.3c-3.1,6.2-3.1,14.3,0.7,20.2c1.2,2.9,3.3,5.1,6.9,4.5c1.3-0.2,1.2-1.9,0.3-2.6c-1-0.7-1.9-1.5-2.7-2.4
		c-0.2-0.6-0.4-1.2-0.6-1.8c-0.1-0.4-0.4-0.6-0.7-0.7c-0.1-0.2-0.2-0.3-0.4-0.4c-3.2-8.2,0.3-16.5,7.7-21.1
		c6-3.7,10.9-7.2,12.5-14.5C490.4,188.3,489.8,187.6,489,187.4z"/>
	<path class="st15" d="M569.9,604.2c2-4.4,4.2-9.2,4.5-14.1c0.1-1.3-1.8-1.7-2.4-0.6c-2.2,3.8-2.8,8.4-4.7,12.3
		c-1.8,3.8-4.4,6.7-7,9.9c-0.3-0.5-0.9-0.8-1.6-0.9c-0.2-1.5-2.1-2.6-3.6-1.3c-3.9,3.4-7.5,7.1-11.1,10.9c0.3-0.9,0.6-1.7,0.9-2.6
		c1.6-5.1,1.2-12.1,5.1-16.2c0.8-0.5,1.6-1.1,2.2-1.7c1.3-1.5-0.4-4.1-2.2-2.9c-0.1,0-0.1,0.1-0.2,0.1c-0.4-0.2-0.8-0.2-1.3,0.1
		c-1.4,0.9-3,1.4-4.7,1.5c-0.8,0.1-1.5,0.6-1.5,1.5c0.1,11.5-3.4,21.5-9.4,31.2c-0.3,0.6-0.3,1.1,0,1.5c-1.8,2.3-3.5,4.7-5,7.3
		c-6.9,11.9-11.3,25.9-15.3,39.1c-4.1,13.5-7,27.4-7.5,41.6c-0.1,1.5-0.1,3-0.1,4.5c-0.5,6.6-0.4,13.2,0.6,19.8
		c0.1,0.8,0.7,1.2,1.3,1.3c1,4.8,2.5,9.4,4.5,13.7c0.5,1.1,2.1,0.3,1.9-0.8c-1.3-6.3-3-12.5-3.8-18.9c0.5,0,1-0.2,1-0.9
		c-0.1-8.2,0.3-16.6,1.3-24.8c0.4,0,0.7-0.2,0.8-0.7c2.8-14.5,5.6-29.8,12.1-43.3c1-2,2-4,3.1-5.9c1.9-3.2,4.1-6.3,6.6-9.2
		c5.6-6.6,13.5-10.9,18.8-17.7c4.8-6.2,6.3-14,7.1-21.6c0.6,1.1,1.4,2.2,2,3.2c0.9,1.7,1.6,3.9,3.2,4.9c1,0.6,2.1-0.2,2.2-1.3
		c0.1-2-1.6-4-2.6-5.7c-0.7-1.2-1.5-2.5-2.4-3.6C565.9,611.5,568.2,607.8,569.9,604.2z"/>
	<path class="st14" d="M513,276.6c-0.2-0.2-0.4-0.5-0.6-0.7c-0.4-0.4-1.1-0.4-1.4,0c-0.4,0.4-0.4,1,0,1.4c0.2,0.2,0.5,0.4,0.7,0.7
		c0.4,0.4,1,0.4,1.4,0C513.4,277.5,513.4,277,513,276.6z"/>
	<path class="st16" d="M555.6,219.8c-2.7-1.9-5.8-3.4-9.1-3c-0.1-0.1-0.3-0.1-0.4-0.2c-3.7-0.6-8.3,2.6-11,4.9
		c-1.4,1.2-2.7,2.5-2.7,4.4c0,1.9,1,3.3,2.7,3.9c0.9,0.3,1.6-0.2,1.9-1c0.4,0.3,0.8,0.5,1.3,0.7c0.5,0.2,1.3,0,1.6-0.4
		c0.1-0.1,0.2-0.2,0.3-0.4c0.3-0.3,0.5-1,0.2-1.4c-0.5-0.7-0.8-0.7-0.6-1.2c0.7-0.5,1.4-1.2,2-1.8c0.6-0.3,1.3-0.7,1.6-0.9
		c1.2-0.8,2.6-2,4.1-2.4c2.3-0.7,4.6,0.6,6.5,1.6C555.9,223.8,557.5,221.1,555.6,219.8z"/>
	<path class="st16" d="M540.2,299.5c-0.4-0.5-0.9-1.1-1-1.2c-0.6-0.7-1.2-1.4-1.6-2.3c-1.1-2.2-1-4.3-0.3-6.6c0.4-1.4-1.4-2-2.2-0.9
		c-2.5,3.4-1.1,8.4,1.3,11.5c0.9,1.1,2.5,3.1,4,3.3c1.7,0.2,2-1.4,2.3-2.7C543.2,298.9,541,298.2,540.2,299.5z"/>
	<path class="st16" d="M543.7,496c-3-1.2-6.2-0.6-9.4-0.7c-2.5-0.1-5.6-0.9-7.5,1c-1.7,1.6-1.5,4.2-1.4,6.4c0.1,2.3-0.2,4.4,1.8,5.8
		c0.5,0.3,1.2,0.3,1.7,0c0.1-0.1,0.3-0.2,0.4-0.3c0.9-0.6,0.9-1.8,0-2.3c-0.7-0.4-0.3-3-0.3-3.7c0-2.6,0.7-3.6,3.5-3.9
		c3.4-0.4,7.3-1,10.6,0.3C544.5,499,545.2,496.6,543.7,496z"/>
	<path class="st16" d="M553,498.9c-1.5-1.4-4.1-1.1-5.2,0.7c-0.7,1.1-0.6,2.3-0.6,3.6c0,1.5-0.3,2.9-0.7,4.3
		c-0.6,1.9,2.2,2.5,2.9,0.8c0.6-1.6,1-3.1,1-4.8c0-0.5-0.3-2.1,0.2-2.4c0.3-0.2,1.4,0.1,1.9,0C553.3,500.8,553.6,499.5,553,498.9z"
		/>
	<path class="st16" d="M533.8,873.1c-0.2-16.5-0.5-33.1-1.8-49.5c-0.7-8.2-1.5-16.4-2.6-24.6c-1-7.9-2-15.9-4.6-23.5
		c0-0.1,0-0.2,0-0.3c-0.3-3.5-5.7-3.5-5.4,0c1,12.3,1.9,24.6,2.7,36.9c-0.1,0.2-0.1,0.4-0.1,0.7c-0.2,14.1-0.4,28.4,1.9,42.3
		c0.3,8.9,0.5,17.8,0.8,26.7c0.4,11.7,0.9,23.3,1.4,35c0.2,6,0.5,12,0.7,18c0.2,5.4,0,11.1,1,16.4c0,0,0,0.1,0,0.1
		c0.3,9.1,0.1,18.3-1.4,27.2c-0.3,1.6,2.1,2.3,2.5,0.7c0.4-1.6,0.6-3.1,0.9-4.7c0.2-0.2,0.4-0.4,0.4-0.7
		C533.7,940.3,534.2,906.6,533.8,873.1z"/>
	<path class="st16" d="M565.4,995.5c-1.4-5.8,0.6-11.2,0.8-17c0.2-5.8-0.5-11.7-0.6-17.5c-0.1-5.7-0.1-11.3,0-17
		c0.1-11.3,0.4-22.7,0.4-34c0-11,0.5-22.7-1.4-33.6c-0.4-2.2-3.9-1.7-3.9,0.5c0.1,11,1.3,22,1.3,33c0,11-0.3,22.1-0.3,33.1
		c0,10.7,0.7,21.3,1.2,32c0.3,5.4-1.3,10.7-1,16.1c0.4,5.7,3.5,9.7,1.4,15.6c-0.4,1.2,1.4,1.6,1.8,0.5
		C566.9,1003.2,566.4,999.7,565.4,995.5z"/>
	<path class="st16" d="M557.3,821.1c-1.2-6.5-2.4-12.9-3-19.5c-0.6-5.7,0.2-11.6-0.8-17.2c-0.3-1.7-2.8-1.5-3.2,0
		c-1.6,5.3-0.6,11.8,0,17.2c0.6,5.8,1.6,11.5,2.7,17.2c2.4,12.6,5.2,25.1,5.6,37.9c0,1.7,2.7,1.7,2.7,0
		C561.5,844.7,559.4,832.8,557.3,821.1z"/>
</g>
</svg>
