<?xml version="1.0" encoding="utf-8"?>
<!-- Generator: Adobe Illustrator 24.0.0, SVG Export Plug-In . SVG Version: 6.00 Build 0)  -->
<svg version="1.1" id="Capa_1" xmlns="http://www.w3.org/2000/svg" xmlns:xlink="http://www.w3.org/1999/xlink" x="0px" y="0px"
	 viewBox="0 0 1080 1080" style="enable-background:new 0 0 1080 1080;" xml:space="preserve">
<style type="text/css">
	.st0{fill:#FFFFFF;}
	.st1{fill:#BE1622;}
	.st2{fill:#E30613;}
	.st3{fill:none;stroke:#FFFFFF;stroke-width:36.1771;stroke-linecap:round;stroke-linejoin:round;stroke-miterlimit:10;}
	.st4{fill:#8692C8;}
	.st5{fill:#F8BA83;}
	.st6{fill:#A36234;}
	.st7{fill:#9D9D9D;}
	.st8{fill:#FFCE01;}
	.st9{fill:#2B4294;}
	.st10{fill:#D9D9D9;}
	.st11{fill:#F8D6AA;}
	.st12{fill:#FFF6B1;}
	.st13{fill:#C18A62;}
	.st14{fill:#575756;}
	.st15{fill:#B6970C;}
	.st16{fill:#272C63;}
	.st17{fill:#3F1E0E;}
</style>
<g>
	<path class="st0" d="M526,1011.3c-2.8-5.2-9.6-5.3-13.7-1.8c-9,7.9-4.8,18.3-10.2,27.8c-6.4,11.4-23.3,15.8-34.7,15.5
		c-2.6-0.2-5.1-0.2-7.7,0c-3.1-5.1-2.9-9.9,0.6-14.3c2.9-5.3,6.6-9.7,9.1-15.3c4.3-9.6,4.7-19.1,0.3-28.7c-2.3-5-10-4.5-12.5,0
		c-5.2,9.4-7.8,20.2-12.4,29.9c-3.2,6.8-6.5,13.7-6.7,21.4c-0.2,7.7,1.9,17.3,8.5,22.2c6.5,4.9,14.5,2.7,22.1,3.9
		c10.4,1.6,16.4,3.4,26.1-2c7.7-4.3,14.8-10,21.3-15.9C527.1,1044.4,533.4,1024.9,526,1011.3z"/>
	<g>
		<path class="st1" d="M539.3,172.7c207.5,0,375.7,168.2,375.7,375.7S746.8,924.1,539.3,924.1"/>
		<path class="st2" d="M539.3,924.1c-207.5,0-375.7-168.2-375.7-375.7s168.2-375.7,375.7-375.7"/>
		<path class="st3" d="M695,157.8c-4-1.2-14.5,4.9-14.5,4.9c-4.7,0.2-19.9-1.2-35.1-5.6c-15.2-4.5-22.7-2.6-22.7-2.6
			s-18.7,1.4-39.8-4.2c-15.4-4.1-27-1.9-32.1-0.3c-0.6-1.6-1.5-3.1-2.2-4.6c0-0.2-0.1-0.3-0.2-0.5c-0.7-1.5-1.5-2.9-2.4-4.2
			c1.4-2.2,2.7-5.1,3.8-8.9c0.1-0.1,0.2-0.1,0.3-0.2c0.4-0.1,0.8-0.3,1.1-0.6c0.4-0.4,0.7-0.9,1-1.4c1.8-2.1,3.3-4.7,3.9-7.1
			c0.5-1.4,0.6-2.5,0.3-3.4c-0.3-2.4-1.9-4.9-3.9-6.5c0-0.1,0-0.2,0-0.3h-0.4c-0.2-0.1-0.3-0.2-0.5-0.4v-0.2
			c0.1,0.1,0.1,0.2,0.1,0.2c0.1-1.4,0-2.7-0.2-3.9c0-0.1,0-0.2,0-0.4c0-0.2-0.1-0.5-0.1-0.7c-0.5-3.1-1.5-6-3.1-8.6
			c-0.9-1.6-1.6-2.6-1.6-2.6s0.3-0.1,0.6-0.5c1.7,1.2,2.8,2,2.8,2c4.9,0.6,6.7-10.4,4.6-22.7c-1.2-7-7.2-4.1-12.1-0.3
			c-0.1-0.1-0.1-0.2-0.2-0.4c-8.7-20.8-19.9-9.5-24-4.8c-0.5,0.6-0.9,1.4-1.2,2.5c-0.2-0.1-0.3-0.2-0.5-0.3
			c-0.2-1.1-0.4-2.2-0.6-3.3l1.2-3c-0.7-1.3-1.5-2.3-2.3-3.1c-0.3-1.8-0.7-3.6-1.1-5.5c0-0.1,0-0.1,0-0.1c2.2,0.4,3.7,0.8,3.7,0.8
			c2.5-7,7.1-11.7-0.3-17.2c-7.4-5.5-15.7-0.3-19-5.2c-3.4-4.9-16.3-16.3-28.5-13.8c-12.3,2.5-6.1,10.7-6.1,10.7
			c25.2,14.7,25.2,31,25.2,31c0.3-0.4,0.6-0.8,0.8-1.2c0.1,4,1.5,7.8,2.9,11.6c-3,5.9-13,10.4-13,10.4c-24.9,7.1-38,16.3-38,16.3
			s-17.5,6.7-9.5,20.9c8,14.1,47.5,33.7,47.5,33.7s-2.8,20.9-0.6,20.9c0.3,0,1.1,0,2.2-0.1c-2.4,0.3-4,0.3-4,0.3
			c-1,30.2,8,50.3,8,50.3c3.1-2.6,6.2-4.7,9.3-6.5c0.1,0.1,0.1,0.2,0.2,0.3c-2.9,1.7-5.8,3.8-8.6,6.3c0,0,22.3,43.6,24.4,49.3
			c0.7,6.5,4.2,13,6.2,16.1c-0.9-0.5-1.8-0.2-2.4,0.5c-0.6-0.5-0.9-0.9-0.9-0.9c-2.9,48.4,12.4,75.8,13.3,79c0.9,3.2,4.3,9.5,4,15.3
			c-0.3,5.8,6.3,34,8.1,37.8c1.6,3.4,4,36.5,4.5,43c-1.7,0.7-2.7-0.7-3.2,0.4c-0.4,0.8-0.3,2.5-0.2,3.7c-8.9-3.8-9.9,23.8-6.7,29.9
			c0.8,1.6,2.3,2.9,4.2,4l-2.4-1.1c-2.1-1-4.5-0.1-5.4,2l-1.4,3.1c-0.5,1-0.5,2.2-0.1,3.1c-1.6,0.1-2.9,1.4-3.9,3.4
			c-0.4,0.8-0.2,1.5,0.3,2c-3.2,6.4-10.2,21.4-10.2,27.5c0,7.7-10.9,15.4-11.7,42.9c0,0.1-0.1,0.2-0.1,0.3c-0.2,1.2-0.4,2.5-0.6,3.7
			c-2.1,0.7-3.4,1.3-3.4,1.3s-2.2,21.9,1.3,44.8c3.5,22.9,6.7,76.5,1.6,87.6c-5.1,11.1-13.7,14.3-10.8,23.8
			c0.9,3.1,5.7,5.2,11.9,6.6l0,0.3c-1.6,12.5-12.3,94.7-12.7,113.7c-0.5,21.1-12.8,84.2-17.4,132.8c0,0-11.9,14.2,39.1,12.5
			c0,0,17.2-105.2,20-134.2c2.6-26.9,12.3-63.8,19.2-66.8c1.7,0.8,3.2,1.4,4.7,1.7c6.8,9.1,15.7,41,18.9,64.8
			c3.8,28.6,23.9,130.9,23.9,130.9c1.3,0,2.6-0.1,3.8-0.2c0.7,12.1-8.6,22-5.9,26.8c2.7,4.8,12.9,11.2,18.2,15
			c5.4,3.7,31.6,1.6,35.9-2.1c4.3-3.8,2.7-17.7-3.2-22c-5.9-4.3-15-20.9-15-20.9l-10.1,0.9c18.5-4.2,11.9-11.7,11.9-11.7
			c-5.8-46-19.2-106.3-20.4-126.6c-1.1-19.4-15.4-108.5-16-112.1c0.2-0.6,0.4-1.2,0.6-1.8c2.3,0.2,4-0.2,4.8-1.5
			c2.2-4.1-5.1-40.3-2.2-62.2c2.9-21.9,0.6-41.9,4.5-50.8c3.8-8.9,11.4-34,12.7-50.5c0,0-2.9-6.5-8.2-9.7c-0.1-0.3-0.2-0.7-0.5-1.1
			c-1.6-2.3-2.5-6.2-3.9-9.4c-4.4-19.7-13.4-25.1-14.2-31.5c-0.7-5.9-9.7-20-12.9-24.9l1-0.3c2.2-0.8,3.4-3.2,2.6-5.4l-1.4-4.1
			c-0.8-2.2-3.2-3.4-5.4-2.6c1-0.6,1.7-1.2,2.1-2c2.2-4.7,3.6-17.7-7-25.3c-0.1-5.3-0.8-9.7-1.4-9c-0.2,0.3-0.5,0.4-0.9,0.4
			c0-8-0.4-35.5,1.4-44.5c2-10.4-2.3-30.3-5.2-36.6c-2.9-6.4-2.9-21.6-1.4-33.2c0.4-2.9,1.4-8.4,2.5-14.8c0.2-0.8,0.5-1.5,0.6-2.3
			c1-4.5,2.1-9.1,3.2-13.7c1.8-8.1,4.3-17.3,2.6-25.6c-0.1-0.6-0.6-1-1.1-1.2c0.9-0.7,1.6-1.4,2.1-2.3c0.9-1.5,0.9-3,0.9-3.6
			c0.8-9,8.2-18.7,10.1-24.9c1.3-4.1,0.8-9-0.7-13.8c0.3-11.7-0.6-45.7-17.9-72.6c5.5,0.9,12.3,1.3,20.4,0.1c21.6-3.1,40,0.4,40,0.4
			s7.2,2.7,22.9,0.1c15.6-2.7,30.9-2.3,35.5-1.5c0,0,8.5,4.9,13.2,0.5c1.6,3,6.5,1.2,10.5-4.7C711.1,165.7,698.9,158.9,695,157.8z
			 M510.8,55.8L510.8,55.8c-0.1,0-0.1,0-0.1,0C510.7,55.8,510.7,55.8,510.8,55.8z M511,138.5c-1.9-0.7-4.3-2-5-2.3
			c-4.5-10.3-15.8-5.5-20.2-9.3c-4.9-4.3-22.4-13.8-22.4-13.8s20.6-26.4,33.1-24.9c0.5,0.1,1,0.1,1.5,0.2c0.1,0.5,0.2,1,0.3,1.4
			c0.9,4,0.7,9.9,3.7,13c0.7,2.1,1.3,4.2,2,6.3c0.1,0.4,0.3,0.7,0.5,0.9c0.1,0.2,0.1,0.4,0.2,0.6c0.4,1.6,0.8,3.1,1.2,4.7
			c-0.1,0.1-0.3,0.1-0.4,0.3c-5.8,4.3-1.5,12.1,2,16.5c0.6,0.8,1.4,1,2.1,1c1,3.2,2.2,5.7,3.4,7.7c0.2,0.8,0.4,1.7,0.6,2.5
			C512.5,141.6,511,138.5,511,138.5z M537.4,608.3c0,0,0.1,0,0.1,0c0.2,0.7,0.3,1.4,0.4,2.2C537.8,609.8,537.7,609.1,537.4,608.3z
			 M541.2,485c0.9,2.3,2,3.8,2.9,4.6C542.7,488.7,541.8,487,541.2,485z M609.3,581.8l0.5,0.4c-0.2-0.1-0.4-0.2-0.6-0.3
			C609.3,581.8,609.3,581.8,609.3,581.8z M580.3,586.7c0.1,0.3,0.3,0.6,0.6,0.8c0,0.1,0,0.3-0.1,0.4c-0.2-0.4-0.4-0.8-0.6-1.1
			L580.3,586.7z M580.6,588.5c-0.1,0.7-0.1,1.6-0.2,2.6c-0.6-0.9-1.3-1.7-1.9-2.5L580.6,588.5z M557.6,494c-0.4,0.3-0.7,0.5-0.7,0.5
			l-0.4,4.2c-0.2-2.3-0.8-4.2-0.9-4.7C556.4,494.1,557,494.1,557.6,494z M555.2,631.8c0.6,0,1.2,0.1,1.8,0.1c0.8,0,1.7,0,2.5,0
			C558.2,632,556.8,632,555.2,631.8z"/>
		<path class="st4" d="M505.5,1015.1l-30-2.7c0,0-9.1,16.6-15,20.9c-5.9,4.3-7.5,18.2-3.2,22c4.3,3.8,30.5,5.9,35.9,2.1
			c5.4-3.8,15.5-10.2,18.2-15C514.1,1037.6,504.5,1027.4,505.5,1015.1z"/>
		<g>
			<path class="st5" d="M563.9,223.7c-3.7-4.3-10.6-2.4-14.5,0.8c-5.1,4.3-6.9,10.9-10.1,16.5c-1.8,3.2-3.8,6.5-6.7,8.8
				c-2.7,2.3-6,3.4-9.2,4.9c-5.7,2.5-10.7,6.8-13.4,12.5c-0.7,1.5,1.2,3.3,2.4,1.9c4.2-4.6,8.5-8.1,14.3-10.5
				c4.6-1.9,8.4-4.1,12.1-7.4c3.8-3.5,6.6-7.8,8.9-12.4c1.2-2.3,2.2-4.7,3.7-6.8c2.7-3.8,5.2-4.2,9.5-3.5
				C563.9,228.9,565.9,226,563.9,223.7z"/>
			<path class="st5" d="M560.7,181.8c-0.6-0.7-1.5-1.4-2.5-1c-6.3,2.4-6.1,11.5-6.2,17.3c0,4.7-0.6,10.4,0.2,15.4
				c-3.1-1.3-7-1.5-10-2.3c-4.7-1.2-9.2-2.5-14.1-1.5c-0.4,0.1-0.7,0.4-0.9,0.7c-2.4-0.3-4.9-0.4-7.3-0.4c-8.6,0.1-19.4-0.4-25.2,7
				c-1.4,1.8,0.7,3.9,2.5,2.5c7-5.8,18.9-3.4,27.2-2.6c4.5,0.5,8.9,1.2,13.2,2.2c4,0.9,7.9,2.9,12,1.6c0.5-0.1,0.8-0.4,1.2-0.7
				c1.3,0.2,2.7,0.2,4-0.2c0.9,0.5,2.3,0,2.2-1.3c-0.5-6.8-0.6-13.9,1.4-20.5C559.8,193.3,564.1,186.4,560.7,181.8z"/>
			<path class="st5" d="M571.1,295.2c-0.2-1.1-1.2-1.5-2.1-1.4c-0.5-1.6-2.2-2.7-4.2-1.5c-3.6,2.1-7.5,2.3-11.5,3
				c-4.1,0.7-7.9,1.6-12.1,1.9c-4.5,0.3-8,1.1-12.5-0.1c-4.3-1.2-7.9-3.7-11.7-6c-1.5-0.9-3,0.3-3.2,1.8c-0.5,3.7-0.7,7.3-0.4,11.1
				c0.1,1.3,2.1,1.8,2.4,0.3c0.6-2.6,1-5.2,1.5-7.8c2.9,2.1,5.9,4.1,9.3,5.4c5.3,2,9.2,1.3,14.6,1c4.9-0.3,9.5-1.2,14.3-1.8
				c4.1-0.5,8.2-0.7,11.7-3.1c0,1.7,0.1,3.5,0.2,5.2c-0.1,6.8-1.1,13.8-2.9,20.1c-0.5,1.8-1.3,3.6-1.7,5.5c-0.5,2-0.4,4-0.9,6
				c-1,3.8-2.7,7.2-3,11.2c-0.1,1.4,1.9,1.5,2.3,0.3c1.2-3.9,3.3-7.8,4.1-11.7c1-4.6,2.1-9.1,3.2-13.7
				C570.4,312.7,572.8,303.5,571.1,295.2z"/>
			<path class="st5" d="M541.2,605c-1.7-6.3-9.9-12-15.3-15.1c-6.3-3.7-13.2-5.7-20.2-3.7c-1.1-1-3-1-3.3,0.8
				c-0.3,1.6-0.5,3.2-0.7,4.8c-0.2,2,2.8,2.2,3.4,0.5c0.2-0.5,0.3-1.1,0.5-1.6c6.9-1.8,13.1,0.6,18.9,4.5c2.4,1.6,4.7,3.5,6.6,5.8
				c1.9,2.2,3.1,5,5.4,6.9C538.5,609.5,542,607.9,541.2,605z"/>
			<path class="st5" d="M542.2,517c-3.3-2.5-7.6-3.5-11.3-5.5c-3.2-1.7-5.2-0.4-6.8,2.7c-0.9,1.8,1.2,3.2,2.6,2c0.5-0.4,1-1,1.5-1.4
				c1.7,0.7,3.5,2.4,5,3.2c2,1,4,1.8,5.7,3.2C541.9,523.7,545.3,519.3,542.2,517z"/>
			<path class="st5" d="M608.8,580c-2.8-4-3.3-12.2-8-14.3c-1.3-0.6-3,0.1-3,1.7c0,2.8,1.6,5.1,2.6,7.8c0.4,1.1,0.8,2.2,1.2,3.3
				c-5.9,0.7-11.4,3.4-17.3,4.9c0-1.1-0.2-2.1-0.6-3.3c-0.6-1.7-3.3-1.5-3.3,0.4c0.1,1.6,0,3.2-0.2,4.8c-0.3,1.6,0.9,2.7,2.4,2.4
				c7.8-1.3,14.8-4.7,22.8-3.6C607.7,584.7,610.5,582.4,608.8,580z"/>
			<path class="st5" d="M577.3,608.2c-5,6.5-7.3,14.8-16.2,16.9c-4.2,1-9.1,0.9-13.2-0.6c-2.2-0.8-9-4.6-7.8-7.8
				c0.9-2.4-2.6-3.5-3.9-1.6c-2.5,3.6,1.9,8.7,4.6,11.1c4.4,3.9,10.4,5.6,16.2,5.7c13.5,0.3,23.2-9.3,23.7-22.8
				C580.8,607.1,578.3,606.8,577.3,608.2z"/>
			<path class="st5" d="M548.5,145.4c0-0.2-0.1-0.3-0.2-0.5c-1.1-2.4-2.5-4.5-4.2-6.4c-0.2-0.2-0.5-0.4-0.7-0.4
				c-1-0.7-2.5,0.4-2.1,1.7c-1,0.1-1.8,0.8-1.9,1.9c0,0-0.1,0.1-0.1,0.1c-0.5-0.7-1.1-1.3-2-1.6c-0.7-0.3-1.6,0.3-1.8,1
				c-0.2,1.1,0.1,2.1,0.5,3c0,0,0,0-0.1,0c-2.2,1.8-1.8,4.6-2.2,7.1c-0.5,2.7-1.3,6.2-3.4,8.2c-4,3.7-10-4.4-11.8-10.2
				c1-0.2,1.7-1.1,1.5-2.5c-1.7-8.3-4-16.5-6.5-24.7c0.5,0.7,1.1,1.4,1.7,2c0.8,0.8,2.5,0.3,2.3-1c-0.6-5.1-3.1-9.9-5.1-14.6
				c-0.2-0.5-0.4-1-0.6-1.5c0.5-0.3,1-0.7,1.2-1.3c1.5,0.7,3.6-0.4,3.2-2.6c-0.1-0.4-0.2-0.9-0.2-1.3c0.1,0.2,0.1,0.4,0.2,0.6
				c0.8,2.5,4.3,1.5,4-0.9c0,0.1,0.1,0.2,0.1,0.2c0.3,0.8,1,1.2,1.7,1.1c0.8,1.6,1.6,3.2,2.5,4.8c0.7,1.3,2.9,0.4,2.5-1
				c-2.7-8.3-5.5-16.3-7.7-24.8c-2.2-8.4-3.4-16.9-5.1-25.4c-0.3-1.7-2.5-1.7-3.3-0.5c-0.7-0.7-1.8-0.9-2.9-0.9
				c-0.4-0.3-1-0.5-1.7-0.4c-1.7,0.2-3.4,0.4-5.1,0.7c-0.5-0.2-1-0.2-1.6-0.1c-0.8,0.2-1.5,0.4-2.2,0.8c-0.6,0-1.1,0.1-1.6,0.1
				c-1.1,0.2-1.7,0.8-1.9,1.5c-1.2-1.2-3.7-0.6-4,1.6c-0.6,5.7,1.9,11.2,3.8,16.4c1.4,4,2.8,8.1,4.3,12.1c0.2,0.7,0.3,1.4,0.5,2.2
				c0.9,4,0.7,9.9,3.7,13c0.7,2.1,1.3,4.2,2,6.3c0.1,0.4,0.3,0.7,0.5,1c0.1,0.2,0.1,0.4,0.2,0.5c0.4,1.6,0.8,3.1,1.2,4.7
				c-0.1,0.1-0.3,0.1-0.4,0.2c-5.8,4.3-1.5,12.1,2,16.5c1.1,1.4,2.5,1.2,3.5,0.3c0,0,0,0.1,0,0.1c-0.1,0.4-0.1,0.8,0,1.3
				c0.6,2.2,1.2,4.3,1.8,6.5c0.3,1.2,0.6,2.4,0.9,3.6c-2.1,3.8,0.2,11.6,2,15c2.5,4.6,7.1,9.3,12.7,9c5.3-0.3,9-4.9,10.9-9.5
				c0.9-2.1,1.9-5.4,1.9-8.4c0.2,0,0.4-0.1,0.5-0.2c0.1,0.2,0.3,0.4,0.4,0.6c0.9,1.1,2.1,1.2,3,0.6c0.6,1.6,1.4,3.1,2.5,4.2
				c1.3,1.3,3.7,0.4,3.7-1.5C551.5,150.8,549.7,148,548.5,145.4z M509.9,70.8c0.2,0.8,0.3,1.6,0.5,2.4c-0.7-1.1-2-1.2-2.9-0.5
				c-0.1-0.5-0.2-0.9-0.3-1.4c-0.5-2.8-5-2.1-5,0.7c0,0.3,0,0.5,0,0.8c-1.4-0.1-3,0.9-3.1,2.6c-0.8-2.3-1.7-4.6-2.8-6.8c0,0,0,0,0,0
				c0.6,0.2,1.2,0.3,2.1,0.1c2.8,0.2,5.6-2,7.1-4.1c0.1-0.1,0.1-0.1,0.1-0.2c0.6,0.2,1.2,0.3,1.9,0.2c1.6-0.2,2.7-1.1,3.2-2.2
				c0.2,2,0.5,4,0.8,6C510.5,68.6,509.7,69.5,509.9,70.8z"/>
			<path class="st5" d="M548,110.7c-1.3,0-2,1-2.1,2.1c-0.3,2.2,1.2,3.3,2.6,4.4c0.4,1,0.7,2.1,0.8,3.1c0.2,3-1.3,5.4-2.4,8.1
				c-0.2,0.4-0.2,0.9-0.1,1.3c-0.2,0.4-0.3,0.9-0.4,1.4c-0.2,0.9,0.6,1.9,1.6,1.6c0.7-0.2,1.4-0.6,2.1-1.1c0.4-0.1,0.8-0.3,1.1-0.6
				c0.4-0.4,0.7-0.9,1-1.4c2.3-2.6,4-6.2,4.3-8.9C556.9,116.3,552.5,110.6,548,110.7z"/>
			<path class="st6" d="M533.6,590.6c0,0,4.8-11.8,8.9-13.3c4.1-1.6,15.2-8.6,15.9-11.8c0.6-3.2,16.6,10.9,22.6,23"/>
			<path class="st5" d="M515.4,144.2c-1.8,13,6,22.3,12.2,22.5c5.7,0.2,13.1-7.4,13.8-18.7"/>
			<g>
				<path class="st5" d="M552.6,112.2c-1.6,34.3-15.4,35.9-15.4,35.9s-5.4,4.3-14.3,0.8c0,0-10.1-1.1-14.6-20.7l-0.2,0.1
					c-3.7-3.5-4.8-6.2-4.8-8.1c0-3.3,3.2-4.6,3.2-4.6c-0.4-1.7-0.6-3.5-0.6-5.3c0-12.7,10.3-22.9,22.9-22.9s22.9,10.3,22.9,22.9
					c0,0.7,0,1.4-0.1,2L552.6,112.2z"/>
				<path class="st5" d="M551.8,128.3l1.6-12.8C553.4,115.5,561.6,118.9,551.8,128.3z"/>
			</g>
			<path class="st6" d="M506.6,115.6c0,0-2.2-15,4.4-18.7c6.6-3.6,3.4-23.2,7.5-27.9c4.1-4.7,15.4-16.1,24,4.8s4.2,21.9,4.2,21.9
				s5.6,7.4,5,16.2c0,0-5.8-12.3-10.6-4.2c-4.8,8.1-18.6,8.3-23.7,0.6S509.1,105.4,506.6,115.6z"/>
			<path class="st5" d="M557.7,185.8c0,0,9.1-12.9,11-14.3s-22.5-3.6-22.5-3.6S552.5,186,557.7,185.8z"/>
			<path class="st7" d="M488.9,62.5c0,0,0-16.3-25.2-31c0,0-6.1-8.3,6.1-10.7s25.2,8.9,28.5,13.8s11.7-0.3,19,5.2
				c7.4,5.5,2.8,10.1,0.3,17.2C517.7,57,495.9,51.1,488.9,62.5z"/>
			<path class="st5" d="M517.4,64.9c-7.4-13.5-22.1,0.3-24.2,6.7s-13.5,11.7-13.5,11.7c-24.8,7.1-38,16.3-38,16.3
				s-17.5,6.7-9.5,20.9s47.5,33.7,47.5,33.7s-2.8,20.8-0.6,20.8s34.9-0.6,28.2-34.6c-3.1-15.8-16.6-9.2-21.5-13.5
				s-22.4-13.8-22.4-13.8s20.6-26.4,33.1-24.8c12.6,1.5,12.9-3.1,12.9-3.1"/>
			<path class="st5" d="M696.6,176.3c-4.7,4.4-13.2-0.4-13.2-0.4c-4.6-0.8-19.9-1.1-35.5,1.5c-15.6,2.7-22.9-0.1-22.9-0.1
				s-18.4-3.6-40-0.4c-21.6,3.1-34.8-4.8-34.8-4.8s-5.1-3.7-2.5-21.1c0,0,14-6.3,35.1-0.7s39.8,4.2,39.8,4.2s7.5-1.9,22.7,2.6
				c15.2,4.4,30.4,5.9,35.1,5.6c0,0,10.5-6.1,14.5-4.9c4,1.2,16.2,8,12.2,13.8C703.1,177.4,698.2,179.3,696.6,176.3c0,0-4.9-5.6-4-8
				"/>
			<path class="st8" d="M536.1,80.3c0,0,16.6-18.1,18.7-5.8s0.3,23.3-4.6,22.7c0,0-13.6-10.5-21.5-9.3c-8,1.1-7.9,0.5-18.4,7
				c-4.2,2.6-6.7-10.4-4.6-22.7s18.7,5.8,18.7,5.8"/>
			<ellipse class="st8" cx="529" cy="82.6" rx="6.3" ry="9.5"/>
			<path class="st5" d="M554.1,216.5c0,0-38.5-17-68,9.1c0,0,24.1,47.2,24.6,49.8c0,0,2.7-13.7,15.4-18.6c12.7-5,19-15.5,20.3-19.6
				c1.2-4.2,6.3-11.1,8.5-11.6c2.2-0.5,14.1-5,27.4,28.1c0,0,3.8-47.1-20.2-80.4C562.2,173.2,554.3,185.7,554.1,216.5z"/>
			<path class="st5" d="M543.5,466.8c0,0-2.9-40.3-4.6-44.1c-1.7-3.7-8.4-32-8.1-37.8c0.3-5.8-3.2-12.1-4-15.3
				c-0.9-3.2-16.1-30.5-13.3-79c0,0,20.6,21.3,52.7,3.2c8.5-4.8-2.6,46.1-4,57.6c-1.4,11.5-1.4,26.8,1.4,33.1
				c2.9,6.3,7.2,26.2,5.2,36.6c-2,10.4-1.2,45.5-1.4,46.7"/>
			<path class="st5" d="M540.7,470.1c0,0-2.2,16,3.5,19.6c5.7,3.5,11.4,4.3,11.4,4.3s3,9.8-1.4,12c-4.3,2.2-17.7,0-20.9-6.2
				C530.1,493.4,531.1,464.6,540.7,470.1z"/>
			<path class="st5" d="M555.9,504.8c0,0,18.5,0,20.9-5.2s3.8-20.4-10.6-27.4c0,0,4.1,16.3-1.4,18.2c-5.4,1.9-7.9,4.1-7.9,4.1"/>
			<path class="st5" d="M581.6,592.6c-26.9-38.8-49.7,1.3-49.7,1.3c4.8-32.5-2.1-36.3,3.1-46c5.2-9.7,6.9-27.4,6.9-27.4l-15.9-7.4
				c0,0-11.8,22.7-11.8,30.6s-11.8,15.9-11.8,46c0,0,32.2-10.5,35.8,23c0,0-1.4,17.9,17.4,19S585.1,597.6,581.6,592.6z"/>
			<path class="st5" d="M580.1,586.7c-7.9-29.1-2-33.3-7.8-41.6c-5.8-8.3-9.3-24.2-9.3-24.2s-5.6-2.1,13.7-8.5
				c0,0,13.2,19.4,14,26.6c0.9,7.3,12.4,13.2,15.7,40.7"/>
			<path class="st7" d="M475.5,1012.4c0,0-9.1,16.6-15,20.9c-5.9,4.3-7.5,18.2-3.2,22c4.3,3.8,30.5,5.9,35.9,2.1
				c5.4-3.8,15.5-10.2,18.2-15c2.7-4.8-7-15-5.9-27.3"/>
			<path class="st7" d="M631.7,1007c0,0,9.1,16.6,15,20.9c5.9,4.3,7.5,18.2,3.2,22c-4.3,3.8-30.5,5.9-35.9,2.1s-15.5-10.2-18.2-15
				c-2.7-4.8,7-15,5.9-27.3"/>
			<path class="st9" d="M477.2,175.3c0,0,37.8,0.4,28.6-39.2c0,0,3,1.6,5.2,2.4c0,0,2.4,4.8,3.6,5.8c0,0-1,19.6,12.2,22.6
				c0,0,12.6,1.4,15-20.4c0,0,4.8,0.4,6.8,2.8c0,0-6.2,18.4,8.4,36.8c0,0-5.6,21.2-2.2,30.2c0,0-37.2-17.6-69.5,9.4
				C485.2,225.6,476.2,205.4,477.2,175.3z"/>
			<path class="st8" d="M518.2,293c0,0-8-10.9-7.7-20.8c0.3-10,21.7-14.9,25.9-19.2c14.6-15.1,14.2-26.6,22.6-27.4
				c11.6-1.1,28.9,22.9,24.3,37.6c-1.9,6.2-9.3,15.8-10.1,24.9c-0.1,0.6-0.1,2-0.9,3.6c-1.6,2.9-5.4,4.3-11.6,7
				C552.2,302.3,533.6,304.7,518.2,293z"/>
			<g>
				<path class="st8" d="M489.6,868.8c-0.5,21.1-12.8,84.2-17.4,132.8c0,0-11.9,14.2,39,12.5c0,0,17.2-105.2,20-134.2
					c2.7-28,13-66.6,19.9-67l-48.7-59.3C502.6,753.5,490.1,848.2,489.6,868.8z"/>
				<path class="st8" d="M633.5,996.2c-5.8-46-19.2-106.2-20.4-126.6c-1.1-19.8-16-112.2-16-112.2L552,812.2
					c6.9,0.8,18.4,39.6,22,67.3c3.8,28.6,23.9,130.9,23.9,130.9C644.7,1008.9,633.5,996.2,633.5,996.2z"/>
			</g>
			<path class="st8" d="M500.9,744.5l3.9,28.2c0,0,42.3,48.2,56,41.9c13.6-6.3,39.9-56.5,38.9-68.6"/>
			<path class="st9" d="M606.5,579.8c7.1,2.1,11,10.9,11,10.9c-1.3,16.5-8.9,41.6-12.7,50.5s-1.6,28.9-4.4,50.8
				c-2.9,21.9,4.4,58.1,2.2,62.2c-2.2,4.1-14-0.6-22.5-4.4c-8.6-3.8-40,1.3-43.2,5.1c-3.2,3.8-43.5,2.9-46.4-6.7
				c-2.9-9.5,5.7-12.7,10.8-23.8c5.1-11.1,1.9-64.8-1.6-87.6c-3.5-22.9-1.3-44.8-1.3-44.8s24.5-11.1,34.9,7
				c10.5,18.1-0.6,20.3,12.4,28.9s20.6,1,20.6,1s13-12.4,14-24.5s-1.6-18.4,3.2-19.4c4.8-1,20-6.7,26.4-2.9"/>
			<path class="st8" d="M544.8,519.9l-14.6-6.8c-2.1-1-2.9-3.4-2-5.4l1.4-3.1c1-2.1,3.4-2.9,5.4-2l14.6,6.8c2.1,1,2.9,3.4,2,5.4
				l-1.4,3.1C549.3,519.9,546.9,520.8,544.8,519.9z"/>
			<path class="st8" d="M564.6,518.7l14.3-4.9c2.2-0.8,3.4-3.2,2.6-5.4l-1.4-4.1c-0.8-2.2-3.2-3.4-5.4-2.6l-14.3,4.9
				c-2.2,0.8-3.4,3.2-2.6,5.4l1.4,4.1C560,518.3,562.4,519.5,564.6,518.7z"/>
			<path class="st7" d="M540.2,471.1c0,0-0.7-3.6,0-5s2.1,1.3,4.7-1.5c2.6-2.8,10-12.7,18-0.6c0,0,4,2.9,5.4,1.4s3.3,23.5-2.8,25.5
				c-6.1,2-7.2,6.3-19.8-0.1C545.8,490.7,538.1,487.8,540.2,471.1z"/>
		</g>
		<g>
			<g>
				<path class="st10" d="M495.5,31.4c-6.1-8.4-15.7-14-26.3-12c-7.1,1.3-12.6,10.9-4,14.8c2.2,1,4.1-2.1,1.9-3.2
					c-0.9-0.5-1.9-1.1-2.2-2.2c-1.3-4.5,4.5-5.3,6.9-5.2c2.5,0.1,5.6,0.5,7.9,1.2c5.1,1.6,8.4,6.8,13.2,9.1
					C494.5,34.6,496.6,33,495.5,31.4z"/>
				<path class="st10" d="M520.4,39.7c-1.3-1.7-3.8-3.2-5.9-3.6c-1.2-0.2-2.4-0.2-3.6-0.2c-1,0-2.9,0.3-3.8-0.2
					c-1.6-1-3,1.4-1.5,2.5c1.5,1.1,4.3,0.7,6.1,0.9c1.4,0.1,2.5,0.3,3.7,1.1c1.2,0.8,2.1,1.6,3.5,2.1
					C520.5,42.7,521.2,40.8,520.4,39.7z"/>
				<path class="st10" d="M510,46.7c-2.2-1-4.4-1.4-6.9-1.2c-1.8,0.2-9.3,3.8-10.2,1.8c-0.5-1.1-2.4-0.3-1.9,0.8
					c0.8,2,2.4,2.8,4.5,2.3c4.8-1,8.2-4.1,13.3-1.7C510.2,49.5,511.4,47.4,510,46.7z"/>
				<path class="st10" d="M488.1,42.1c-1.3-2.2-11.1-15-13.5-8.6c-0.4,1.2,1.2,1.9,2,1.2c0.7-0.6,5,3.2,5.5,3.7
					c1.6,1.5,3,3.1,4.3,4.9C487.1,44.2,488.8,43.3,488.1,42.1z"/>
				<path class="st10" d="M561.5,460.4c-3.4-4.5-9.6-4.4-13.8-0.9c-1.2,1-2.1,2.2-3.2,3.3c-1.3,1.2-3.2,1.4-4.5,2.5
					c-2.2,1.8-0.6,4.3-0.5,6.8c0,1.2,2.1,1.7,2.3,0.3c0.1-0.8,0.3-1.8,0.2-2.6c0-0.4-0.6-1.5-0.5-1.8c0.1-0.2,1.7-0.3,2-0.4
					c0.7-0.3,1.3-0.9,1.8-1.4c1.5-1.3,2.7-3,4.3-4.3c3.1-2.4,6.3-2,9.3,0.4C560.3,463.2,562.6,461.9,561.5,460.4z"/>
				<path class="st10" d="M566,478.8c-4-3.3-7.3-5.4-12.7-4.2c-4.4,1-7,5-8.6,9c-1,1.6-1.5,3.4-0.9,5.2c0.6,1.5,3.2,2,3.6,0
					c0.4-2.5,1.3-4.2,2.7-5.7c1.5-1.2,3.2-2.2,4.1-2.6c3.8-1.7,6.2,0.5,9.7,1.4c0.5,0.1,0.9,0,1.2-0.3
					C566.2,481.5,567,479.7,566,478.8z"/>
				<path class="st11" d="M507.8,62.2c-7.4-2.1-13.5,7.8-18.5,11.9c-2,1.7-4.1,3-6.3,4.3c-6.5,3-13.2,5.4-19.9,8
					c-3.1,1.2-6.1,2.4-9.1,3.8c-0.3-0.1-0.6-0.1-1,0c-1.8,0.7-3.4,1.7-4.9,2.7c-11.4,5.6-22.9,13.9-17.4,26.6
					c0.1,0.3,0.4,0.6,0.7,0.7c0.9,2,2.2,3.9,4,5.4c1.4,1.1,3.1-0.6,1.9-1.9c-0.2-0.3-0.4-0.5-0.6-0.8c0.1-0.2,0.1-0.4,0-0.6
					c-4.2-10.3,2.2-18.4,10.3-24c7.2-3.5,14.7-6.5,22.2-9.4c6.7-2.6,13.8-4.4,19.7-8.6c2.7-1.9,5.2-4.2,7.6-6.5
					c2.8-2.7,6.5-8.1,10.6-8.1C509.3,65.5,509.7,62.7,507.8,62.2z"/>
				<path class="st11" d="M505,97.7c-1.3-3.9-2.9-7.8-5-11.3c-1.1-1.8-4.4-0.6-3.5,1.5c1.5,3.6,3.2,7.2,4.4,11
					c1.1,3.3,1.5,7.3,3.3,10.3c0.7,1.1,2.7,1.1,2.9-0.4C507.7,105,506.2,101.2,505,97.7z"/>
				<path class="st11" d="M481.8,155.5c-0.1-0.8-0.2-1.5-0.3-2.3c0-0.2-0.1-0.4-0.3-0.5c-0.2-0.7-0.9-0.8-1.5-0.5
					c-0.5,0.1-0.9,0.4-1,1c-0.4,3-0.2,6.1-0.2,9.2c0,0.7,0,1.4,0,2.1c-0.1,2.7-0.1,5.4-0.1,8.1c0,2.7,3.9,2.6,4.1,0
					C483,167.1,482.8,161.1,481.8,155.5z"/>
				<path class="st11" d="M510,131.2c-1.2-1.9-2.6-3.3-3.4-5.5c-0.9-2.7-2.1-6.7,1.1-8.2c1.7-0.8,0.5-3.4-1.3-3
					c-4.4,1.1-4.7,5.8-3.9,9.5c0.7,3.3,2.3,8.3,6.1,9C509.6,133.2,510.5,132.2,510,131.2z"/>
				<path class="st11" d="M531.5,152.1c-3.6-2.6-8.2-3.3-11.7-6.3c-3.3-2.9-5.5-7.2-7.9-10.9c-0.6-1-2.3-0.4-1.9,0.8
					c1.6,5,3.7,9.6,7.6,13.1c3.3,2.9,8.7,5.7,13.1,5.8C532.3,154.6,532.5,152.8,531.5,152.1z"/>
				<path class="st11" d="M511.9,269.1c0-0.1-0.1-0.1-0.1-0.2c0-0.2,0-0.5-0.2-0.7c0,0,0,0,0,0c0.3-0.4,0.4-0.9,0.1-1.4
					c-4.6-8.1-8.7-16.5-13.4-24.6c-0.4-0.7-0.8-1.4-1.2-2.1c-2-5.7-3.8-11.7-1.9-17.3c0.2-0.6,0-1.1-0.3-1.5
					c0.4-0.4,0.8-0.8,1.2-1.2c1.4-1.5-0.7-3.5-2.2-2.2c-1.7,1.4-5.1,3.7-6.7,6.2c-1.2-0.7-3.1,0.2-2.6,1.9c2.4,8,6.3,15.3,10.3,22.6
					c2.4,4.3,5.1,8.4,7.8,12.4c0,0.4,0.2,0.8,0.5,1.1c0.5,0.6,1,1.2,1.5,1.8c1,1.5,1.9,2.9,2.8,4.4c0.5,0.9,1,1.7,1.5,2.6
					C510,272.8,513,271.1,511.9,269.1z M490.5,225.8c-0.1,0.8-0.2,1.7-0.1,2.5C490.1,227.5,490,226.7,490.5,225.8z"/>
				<path class="st11" d="M543.3,425.4c-1.2-6.2-2.8-12.4-4.2-18.5c-0.8-3.6-1.7-7.3-2.1-11c-0.4-2.9-0.3-5.4-1.4-8
					c-0.9-2.1-3.7-1.1-4.4,0.6c-1.9,4.8,0.2,11.8,1.3,16.7c1.4,6.5,3.6,12.7,5.2,19.2c3.3,13.5,3.2,27.7,4.4,41.5
					c0.2,1.7,2.7,1.8,2.7,0C545.1,452.3,545.9,438.7,543.3,425.4z"/>
				<path class="st11" d="M530,359.3c-1.5-6.9-4.3-13.4-6.1-20.2c-1.8-6.8-3.1-13.7-3.6-20.7c-0.3-3.6-0.5-7.5,0.6-11
					c0.7-2.3,0.9-3.3,3.5-3.4c0.8,0,1.6,0.2,2.5,0.3c0,0,0.1,0,0.1,0l0,0c0.3,0.1,0.6,0.1,0.9,0.1c4,0.4,4.7-5.9,0.9-7
					c-4.4-1.2-8.2-3.1-11.6-6.2c-2.3-2.1-6.1-0.7-6.2,2.6c-0.2,14.2,1.2,28,3.7,42c2.4,13.7,6.6,26.1,12.2,38.6
					c0.2,1.2,0.6,2.3,1.1,3.4c0.7,1.4,2.5,0.8,3-0.4C533.1,372.3,531.1,364.5,530,359.3z"/>
				<path class="st11" d="M544.9,500.3c-6.3-1.3-6.6-11.1-7.6-16.2c-0.2-1.2-1-1.7-1.9-1.7c0.1-0.8,0.2-1.5,0.5-2.2
					c0.6-2.1,2-3.6,2.5-5.6c0.4-1.3-0.9-2.7-2.3-2.3c-6.4,1.8-6.1,11.4-5.8,16.6c0.3,5.1,1.3,12.6,7,14.5c0.7,0.2,1.3,0,1.6-0.5
					c0.7,0.8,1.4,1.5,2.2,2.1c0.9,0.8,2,0.5,2.7-0.1C546.5,505.2,547.8,500.9,544.9,500.3z"/>
				<path class="st11" d="M525.7,513.9c-3.5,5.2-7.1,11.3-9.6,17.1c-2.9,6.6-3,13.8-5.4,20.6c-4.4,12.7-13.7,23.4-10.5,37.8
					c0.4,1.7,3.3,1.9,3.6,0c1-6.9,2-13.7,4.9-20.1c2.6-5.6,5.8-11,7.7-16.9c2.1-6.6,2.2-13.8,5.3-20.2c2.6-5.3,7.5-10.3,8.5-16.3
					C530.8,513.1,527.4,511.4,525.7,513.9z"/>
				<path class="st11" d="M571.7,536.9c-3.4-5.7-5.6-12-6.9-18.5c-0.4-1.7-3.3-1.4-3.1,0.4c0.7,5.1,1.9,10,3.9,14.8
					c2.5,5.7,6.1,10.5,8.2,16.4c0.5,1.5,2.4,1.4,3,0C578.7,545.2,574,540.7,571.7,536.9z"/>
				<path class="st11" d="M582.2,585.3c-3.8-7.4-2.6-14.8-3.9-22.6c-0.2-1.4-2.5-1.4-2.8,0c-1.4,7.8,0.2,17.3,4.3,24
					C580.7,588.3,583,586.9,582.2,585.3z"/>
				<path class="st11" d="M557.1,575.2c-7.4-1.2-13.4,2.7-18.6,7.6c-3.3,1.2-5.1,3.5-5.9,6.1c-0.5,0.5-1,1.1-1.5,1.6
					c-0.9,0.9,0,2.2,0.9,2.2c-0.1,4.2,1.4,8.9,2.8,12.4c2.1,5.1,1.5,10.9,3.7,15.9c1.3,2.9,3.8,6.1,7.2,5.8c1.2-0.1,1.9-1.5,1-2.4
					c-2.9-3.2-4.4-5.2-4.9-9.5c-0.4-3.5-0.4-6.7-1.5-10.1c-0.3-1.1-0.8-2.2-1.2-3.3c0.6-0.2,1.1-0.7,1-1.4
					c-0.5-4.9-1.5-8.9,1.8-13.1c2.6-3.3,6.5-4.9,9.5-7.8c0.2-0.2,0.3-0.4,0.3-0.6c1.6-0.5,3.2-0.8,5-0.9
					C558,577.6,558.6,575.5,557.1,575.2z"/>
				<path class="st11" d="M585.1,150.3c-6.3-1.8-13.5-2-20-2.7c-6-0.6-12.1-0.4-17.6,2.2c-1.5,0.7-0.4,2.9,1.1,2.6
					c6.3-1.3,11.8-1.4,18.2-0.5c5.8,0.8,12,2.3,17.8,2.1C586.7,153.8,587.1,150.9,585.1,150.3z"/>
				<path class="st11" d="M650.4,156.3c-5.4-3.6-12.7-4.9-19.1-4.9c-5.1,0-10,2-14.9,2.4c0,0-0.1,0-0.1,0c-1.1,0.1-1.7,1.2-1.2,2.1
					c1.7,3.5,10.1,0.4,12.7,0.2c7.6-0.5,14.3,3,21.8,3.3C651.3,159.5,651.7,157.2,650.4,156.3z"/>
				<path class="st11" d="M494,67.6c-0.5-2.1-0.2-4.1-0.4-6.2c-0.1-1.4-2.1-1.8-2.5-0.3c-0.7,2.3-0.1,5,0.5,7.2
					C492,69.8,494.4,69.2,494,67.6z"/>
				<path class="st12" d="M519.5,72.9c-1.5-1.9-4.3-3.3-6.5-4.3c-1.8-0.9-3.7-1.5-5.5-0.3c-1.7,1.1-2.1,3.2-2.5,5.1
					c-0.4,2.4-0.6,4.8-0.5,7.2c-0.2,1.9,0.1,3.9,0.4,5.8c0.3,1.9,0.3,4.5,1.6,6.2c3.2,4.2,7.5-0.3,10.9-1.2c1.8-0.5,1-3.2-0.8-2.8
					c-1.3,0.3-2.3,0.8-3.5,1.4c-1.9,0.9-4.1,1.8-4.7-1c-0.6-2.7-0.6-5.6-1.2-8.3c0.1-1.4,0.3-2.8,0.6-4.2c0.2-1.1,0.5-4.3,1.5-5
					c1.9-1.3,7,3.4,8.8,4.1C519.7,76,520.4,73.9,519.5,72.9z"/>
				<path class="st12" d="M531.3,74.7c0-0.6-0.3-1.3-0.9-1.6c-8.9-4.7-8.8,10.8-7.7,15.4c0.4,1.5,2.9,1.2,2.7-0.4
					c-0.3-2.7-0.4-5.4,0.1-8.1c0.2-0.9,0.3-2.3,0.9-2.9c1.2-1.3,2.2-0.6,3.5-0.5c0.7,0.1,1.4-0.7,1.3-1.3L531.3,74.7z"/>
				<path class="st12" d="M544.2,71.7c-1.8-0.1-3.5,1.5-4.8,2.7c-0.7,0.7-1.4,1.4-2,2.1c-0.6,0.6-1.7,2.2-2.6,2.3
					c-0.8,0.1-1.4,0.9-0.9,1.6c1.4,2.1,3.7,0,4.9-1.2c1-1,1.9-2,2.9-2.9c1-0.9,2.4-1.4,3.4-2.5C545.8,73,545.3,71.8,544.2,71.7z"/>
				<path class="st12" d="M547,237.4c-3.3,3.2-5.3,7-8.1,10.6c-2.9,3.7-6.6,6.8-10.7,9c-6.8,3.6-15.9,4.7-20,12.3
					c-3.2,6.1,0.5,16,4.4,21c4.5,5.9,13.6,11.2,21.1,10.8c0.3,0,0.5-0.1,0.7-0.2c0.6,0.2,1.3,0.3,2,0.3c1.3,0,2-2,0.7-2.6
					c-6-2.6-10.1-8.1-15.3-11.9c-3-4.9-6.2-10.3-2.9-16c3-5.2,10.4-7,15-10.8c1.6-1.1,3.1-2.4,4.5-4c4.5-4.9,8.8-10.8,10.6-17.2
					C549.3,237.4,547.9,236.6,547,237.4z"/>
				<path class="st12" d="M540.6,516c-0.2-0.1-0.5-0.3-0.7-0.4c-0.1-0.1-0.1-0.3-0.2-0.4c-1.4-1.6-3.7-1.6-5.2-3.1
					c-0.6-0.7-1.2-2-1.2-3.3c0-0.1,0.1-0.2,0.1-0.3c0.2-1,0.3-2.3,1.5-2.6c0.7,0.4,1.4,0.2,1.9-0.2c0,0,0.1,0,0.1,0
					c1,0.1,1.6-1.2,1.1-1.9c-3.8-5.5-10-1.2-10.7,4.1c-0.3,2.4,0.6,4.5,2.2,6.1c0.6,0.9,1.4,1.6,2.4,1.8c2.3,1.2,4.8,1.7,7.2,2.9
					C540.8,519.7,542.4,517,540.6,516z"/>
				<path class="st12" d="M567.1,503.6c-1.7,0.4-3.2,1.4-4.9,1.7c-1.2,0.2-2.1,0.2-3.1,0.9c-1.8,1.2-2.2,3.2-1.9,5.2
					c0.6,3.9,2.2,10.1,7.4,8.7c2-0.5,1.6-3.6-0.5-3.6c-1.6,0-2-1.1-2.3-2.4c-0.3-1.3-1-3.1-0.5-4.3c1.1-2.3,4.5-2.9,6.6-4.1
					C569.2,505,568.4,503.3,567.1,503.6z"/>
				<path class="st12" d="M500,797.7c-0.1-1.3-2-1.6-2.3-0.3c-1.2,4.8-1.3,9.8-1.7,14.7c-0.1,1.8,2.5,1.7,2.7,0
					C499.3,807.3,500.2,802.5,500,797.7z"/>
				<path class="st12" d="M503.2,769.8c-0.1-1.3-2-1.7-2.4-0.3c-0.8,3.2-1.2,6.7-1.3,10c-0.1,1.3,1.7,1.3,2.1,0.3
					C502.8,776.7,503.5,773.1,503.2,769.8z"/>
				<path class="st12" d="M500,1006.6c-3.6-1-6.9-3-10.5-4c-0.8-0.2-1.7-0.4-2.6-0.7c-4.4-5.1-6.4-12-6.7-19.5
					c0.6-6.3,0.9-12.5,2.2-18.8c1.4-6.9,3.2-13.6,4.8-20.4c2.5-10.3,5.1-20.8,4.5-31.4c0.4-1.8,0.7-3.7,0.9-5.6
					c1-7.7,0.8-15.5,1.6-23.3c0.9-8.5,2.4-17,3.7-25.4c1.2-8,3.4-16.5,2.4-24.6c-0.1-0.9-1.3-1.6-2-1.1c0-0.1,0-0.2,0-0.4
					c-0.2-2-2.7-2.3-3.5-0.5c-3.3,7.9-3.9,16.7-5,25.1c-1.2,8.8-2.3,17.7-3.5,26.5c-2.3,17.8-4.8,35.5-7.2,53.3
					c-2.4,17.4-4.8,34.8-7.2,52.1c-0.8,5.7-4,14.8-0.6,20.2c1.4,2.2,3.6,2.9,6,3.5c4,0.9,8,1.5,12,2.3c0.9,0.2,1.5-0.2,1.9-0.9
					c0.9-0.1,1.8-0.2,2.7-0.4c1.9,0.4,3.9,0.5,5.9,0.2c1.2-0.2,1.5-1.4,1.2-2.4C502.2,1009.5,501.9,1007.2,500,1006.6z"/>
				<path class="st12" d="M520.7,802.1c-1.5,6-2.4,12.3-3.7,18.4c-1.3,6.1-2,12.4-2.9,18.6c-1.8,11.9-3.6,23.8-4.9,35.7
					c-0.1,1.1,1.8,1.4,2,0.3c2.3-12.3,4.3-24.6,6.5-36.9c1-5.6,2.3-11.2,3-16.9c0.8-6.2,2-12.5,2.7-18.8
					C523.4,800.9,521,800.6,520.7,802.1z"/>
				<path class="st12" d="M503.9,927.9c-0.5-0.1-1.2,0.2-1.2,0.7c-0.2,1.2-0.4,2.4-0.5,3.6c-0.1,0.6,0.1,1.1,0.7,1.3
					c0.5,0.1,1.2-0.2,1.3-0.7c0.2-1.2,0.3-2.4,0.5-3.6C504.7,928.6,504.5,928,503.9,927.9z"/>
				<path class="st12" d="M501.8,935.5c-3,14.9-4,30.1-4.9,45.3c-0.1,1.6,2.3,1.6,2.4,0c0.8-15.1,2.9-30,4.5-45
					C504,934.6,502.1,934.3,501.8,935.5z"/>
				<path class="st12" d="M595.8,854.3c-1.6-8-3.2-16-5-24c-1.8-8-3.4-16-5.2-24c-1.8-8-3.4-16.4-6.8-24c-0.6-1.3-2.9-0.7-2.7,0.7
					c0.8,7.6,3.2,15.1,5.2,22.4c2.2,8.2,4.4,16.4,6.3,24.7c1.8,8,3.5,16,5.1,24c1.6,8.2,2.5,17,5.1,24.9c0.3,1.1,2.1,0.9,2-0.3
					C599.7,870.7,597.4,862.3,595.8,854.3z"/>
				<path class="st12" d="M609.4,946c-1.1-6.6-2.3-13.3-3.4-19.9c-1.2-6.8-1.7-14.2-4-20.7c-0.5-1.6-3.1-1.4-3,0.4
					c0.1,6.5,1.9,13.1,3.1,19.4c1.3,6.9,2.5,13.9,3.8,20.8c2.6,13.8,5.3,27.7,8,41.5c0.3,1.4,2.3,0.8,2.1-0.6
					C613.8,973.2,611.7,959.6,609.4,946z"/>
				<path class="st12" d="M609.1,1004.6c-0.2-0.4-0.5-0.8-0.9-1c1.3-0.3,0.8-2.3-0.4-2.4c-0.5,0-1.6,0.3-2.3,0.4
					c-0.2,0-0.5,0-0.7-0.1c-0.9-0.2-1.6-0.6-2.2-1.2c-0.3-0.3-0.5-0.5-0.7-0.8c-1.8-2.9-2.7-6.6-3.7-9.5c-0.2-0.6-0.4-1.2-0.6-1.7
					c-0.7-4.8-1.5-9.5-2.2-14.3c-0.1-0.5-0.3-0.9-0.6-1.1c-0.7-4.1-1.6-8.2-3.1-11.9c-0.4-1-1.7-1.1-2.1-0.2
					c-1.6-6.1-3.1-12.2-4.4-18.4c-2.3-10.4-4.2-20.9-5.8-31.5c-1.7-11.1-2-22.5-4.3-33.5c-0.4-1.8-3.1-1.3-3.2,0.4
					c-0.5,12.1,2,24.9,3.9,36.9c2,12.3,4.4,24.6,7.4,36.8c2.6,11,5.7,21.8,9.2,32.5c0.1,0.4,0.1,0.9,0.2,1.3c-0.9,0.2-1.7,1-1.5,2.1
					c1.5,6.3,2.5,12.7,3.2,19.2c0.2,1.3,1.5,2.5,2.8,1.6c0.3-0.2,0.6-0.4,1-0.6c2.3,2,5.7,2.2,9.4,1.6c0.9-0.1,1.4-0.8,1.5-1.5
					C610.4,1007.4,610.4,1005.3,609.1,1004.6z"/>
			</g>
			<path class="st13" d="M533.5,89.8c-1.8-1.2-3-1-5.1-0.7c-1.9,0.3-3.8,0.2-5.7,0.5c-0.2-0.8-1-1.5-2-1.3
				c-5.4,0.9-9.5,6.3-12.6,10.4c-3.3,4.4-4.3,9.3-3.1,14.7c0.3,1.4,2.7,1.1,2.5-0.3c0-0.4-0.1-0.9-0.1-1.3c1-2,1.9-4.7,3.7-6
				c0.3,0.2,0.7,0.2,1.1-0.1c1.5-1.1,3.4,0.5,4.3,1.4c0.5,0.6,1,1.1,1.5,1.7c1.2,1.3,2.6,2.4,4.2,3.2c2.7,1.6,5.9,2.6,9,1.8
				c1.6-0.4,1.5-2.7,0-3.1c-2.6-0.8-5.3-0.8-7.7-2c-2.4-1.2-3.8-3.3-5.9-4.9c-1-0.8-2.1-1.3-3.2-1.4c-1.7-0.6-3.5-0.1-5,1
				c0.4-0.7,0.8-1.4,1.2-2.1c0.4,0.3,1,0.3,1.5-0.1c2.5-2.4,5.1-4.9,8.2-6.6c2-1.2,3.7-1.2,5.9-1.3c1.5-0.1,4.1-0.9,5.5-0.3
				C533.7,93.8,535.4,91.1,533.5,89.8z"/>
			<path class="st13" d="M533.1,62.7c-5.3-6.3-14.4,3.5-15.4,8.8c-0.2,0.9,0.4,1.5,1,1.8c0.1,0.2,0.2,0.3,0.4,0.5
				c0.1,0.1,0.3,0.2,0.4,0.3c0,0,0,0,0,0c0,0,0.1,0,0.1,0.1c0.9,0.6,1.8,1.1,2.9,1.4c0.1,0,0.2,0.1,0.3,0.1c0.8,0.4,2-0.4,2.2-1.2
				c0.1-0.4,0.4-1.8,1-2.2c0.2,0,0.3-0.1,0.5-0.1c0.1,0,0.3,0,0.4,0c0.9,0.1,1.6,0.6,2.2,1.2c0.9,0.9,2.7-0.3,1.9-1.4
				c-1-1.2-2.2-2.3-3.6-2.6c-0.7-0.6-1.5-0.5-2.2,0c-1.1,0.3-2,0.9-2.7,1.7c0,0,0,0,0,0c-0.1,0-0.2-0.1-0.3-0.1
				c-0.2-0.1-0.3-0.2-0.5-0.3c-0.1,0-0.2-0.1-0.2-0.1c0.8-1.5,1.9-2.7,3.2-3.8c2.3-1.9,4.4-2.8,7.2-1.7
				C533.1,65.4,533.8,63.6,533.1,62.7z"/>
			<path class="st13" d="M562.4,564.8c-1.6-1.6-3-2.9-4.2-4.9c-0.8-1.4-2.8-1-3.3,0.4c-2.5,7.7-8.4,11.4-14.6,16.1
				c-4,3.1-8,6.9-9.2,12c-0.3,1.4,1.7,2.4,2.5,1c1.4-2.6,3.1-4.7,4.9-6.5c0.6,0.3,1.3,0.2,1.8-0.3c4.1-4.5,9.2-6,14.1-9.2
				c1.6-1.1,3.3-2.4,4.3-4.1c0.7-1.2,0.9-2.4,0.9-3.7c0.3,0.3,0.6,0.6,0.9,0.9C561.9,567.6,563.6,565.9,562.4,564.8z"/>
			<path class="st10" d="M465.4,1034.7c-0.9,0.2-1.7,0.5-2.5,0.8c1.9-1.8,4-3.4,5.7-5.5c3.3-3.8,7.6-9.5,6.6-14.8
				c-0.3-1.5-2.1-1.3-2.9-0.4c-2.3,3-3.1,7-5.4,10.2c-2.2,3.1-5.1,5.5-7.8,8c-4.9,4.6-7,10.4-5.6,17.1c0.1,0.5,0.4,0.9,0.8,1.1
				c0,0.2,0,0.4,0.1,0.6c0.1,0.4,0.3,0.7,0.6,0.8c0.1,1.5,0.7,3,1.8,4.2c1.1,1.2,3,0.2,3.1-1.3c0.1-2.1-0.6-4,0.1-6.1
				c0.7-2.4,2.4-4.4,4.5-5.8c4-2.5,8.3-1.9,12.7-2.5c1.6,0.9,2.9,2.2,4.8,2.8c1.2,0.4,2.4-0.6,2.4-1.9
				C484.5,1034.1,471,1033.5,465.4,1034.7z"/>
			<path class="st10" d="M488.2,1020.8c0-0.6-0.1-1.1-0.2-1.6c-0.3-1.1-1.7-0.9-2.1,0c0,0,0,0,0,0.1c-0.2,0.1-0.4,0.4-0.4,0.7
				c-0.6,4.5-3.6,8-5,12.2c0,0,0,0,0,0.1c-0.1,0.2-0.1,0.3-0.1,0.5c-0.3,1.1,1.1,1.7,1.9,1.1c2.1-1.7,3.5-4.3,4.7-6.7
				C487.8,1025,488.7,1023.1,488.2,1020.8z"/>
			<path class="st10" d="M611.1,1049.4c-1.5-2.1-3.3-3.8-5.3-5.4c0.3-0.6,0.3-1.4-0.2-2.2c-2.5-4.7-3.4-9.6-2.5-14.7
				c0.2-0.5,0.5-1.1,0.7-1.6c1.4-3.1,2.6-6.2,2.6-9.5c0.4-1.6,0.7-3.1,0.7-4.8c0-2.2-2.3-2.7-3.6-1.7c-0.6-1-2.5-0.8-2.9,0.5
				c-1.6,4.5-2.6,9.2-4.1,13.8c-1.2,3.7-3.9,8.1-3.5,12.1c0.3,2.9,2.2,4.8,4.3,6.6c3.6,3.2,7.2,7.1,11.5,9.4
				C610.2,1052.5,612.2,1050.9,611.1,1049.4z"/>
			<path class="st10" d="M632.9,1030.3c-0.2,0.1-0.5,0.2-0.7,0.3c0.1-0.2-0.7,0.2-1,0.3c-0.5,0.2-1.1,0.4-1.6,0.7
				c-0.4,0.2-0.8,0.5-1.1,0.8c-1.1-2.6-3.9-3.9-6.4-5.1c-1.7-0.8-3-1.7-3.7-3.5c-0.6-1.4-1-2.9-1.8-4.2c-0.5-0.9-2.1-0.5-2,0.5
				c0.2,2.9,1.1,6.3,3.2,8.3c1.1,1,2.4,1.7,3.6,2.4c1.7,1.1,3.1,2.8,5,3.6c0.1,0,0.2,0.1,0.3,0.1c-0.8,1.1-1.3,2.4-1.7,3.7
				c-0.4,0.3-0.7,0.8-0.8,1.4c-0.1,1-0.2,2-0.2,3.1c0,0.1,0,0.3,0,0.4c-0.2,0.9-0.5,1.9-0.7,2.8c-0.2,1.6,1.8,1.9,2.8,1.2
				c1.8-1.4,2.3-3.8,2.2-6.1c0.4-1.9,1-3.8,2.3-5.3c1.2-1.3,3.3-1.2,4.2-2.8C635.6,1031.7,634.4,1029.7,632.9,1030.3z"/>
			<path class="st10" d="M624.2,1050.9c-0.6,0-1.2,0.1-1.8,0.2c-0.2-0.1-0.4-0.1-0.7-0.1c-1.4,0.1-2.5-0.4-3.6-1.2
				c-1.7-1.2-4,1.6-2.3,3c0.1,0.1,0.3,0.2,0.4,0.3c0,0,0,0,0,0c0.1,0,0.1,0.1,0.2,0.1c1.2,0.9,2.6,1.5,4.1,1.6
				c1.6,0.2,3.6,0,4.8-1.3C626.2,1052.5,625.6,1051,624.2,1050.9z"/>
			<path class="st4" d="M524,209.6c-3.4-1.7-7.3-1.8-11.1-1c0,0-0.1,0-0.1,0c-6.4-0.2-12.6,2.7-18.2,6.3c-0.1,0-0.3,0.1-0.4,0.1
				c-0.3-0.1-0.6-0.1-0.9,0c-4.6,1.2-5.7-5.5-6.8-8.3c-0.1-0.4-0.4-0.6-0.7-0.7c-0.5-2.7-0.8-5.4-1.2-7.7c-0.2-3.1-0.2-6.2,0.5-9.2
				c1.5-6.1,5-9.3,9.9-12.8c5.5-3.9,11.1-10.1,11.8-17.1c2.4-6,3.8-13.7,1.2-19.5c-0.6-1.3-2.3-0.7-2.7,0.4
				c-1.6,4.7-1.1,9.9-2.5,14.7c-1.4,4.9-4,9.5-7.9,12.9c-4.5,3.9-9.6,4.3-15,5.9c-3,0.9-5.3,2.8-5.5,6.1c-0.3,4.4,0.8,9.2,1.5,13.6
				c0.6,4.2,1.5,8.4,2.5,12.6c0.2,1.8,0.4,3.5,0.6,5.3c0.4,2.9,0.9,6.1,2.2,8.8c0.1,1,0.5,2,0.9,2.7c0.2,0.5,0.5,1,0.8,1.5
				c-0.4,1.6,1.4,3.1,3,2c0.2,0,0.5-0.1,0.7-0.3c0,0,0.1,0.1,0.1,0.1c0.2,0.2,0.5,0.3,0.8,0.3c0.1,0,0.3,0,0.4-0.1
				c0.1,0,0.3-0.1,0.3-0.2c0.2-0.2,0.3-0.5,0.3-0.8c0-0.1,0-0.2,0-0.3c-0.1-0.2-0.1-0.3-0.3-0.5c0,0,0,0,0,0
				c0.5-0.2,1.1-0.4,1.6-0.8c0.5-0.3,0.8-0.7,0.9-1.2c4-2.6,8.4-4.4,13-6.1c0.4-0.1,0.8-0.3,1.2-0.4c1.7-0.1,3.3-0.4,4.8-1.5
				c0,0,0.1-0.1,0.1-0.1c1-0.3,1.9-0.5,2.9-0.7c3.6-0.6,7.2,0.1,10.8-0.7C525.1,212.6,525.4,210.3,524,209.6z"/>
			<path class="st4" d="M538.7,153.5c-0.8,2.6-1.9,5-3.4,7.2c-1,1.4-2,2.3-3.3,2.9c-1,0.3-2,0.5-3,0.6c-1.6,0.3-3.6,0-5,0.8
				c-0.8,0.5-1.1,1.7-0.3,2.4c1.6,1.4,4.1,1.1,6.1,0.6c1.4-0.3,2.6-0.9,3.6-1.7c1.4-0.6,2.6-1.5,3.8-3c1-1.2,1.8-2.5,2.5-3.9
				c0.1-0.1,0.2-0.2,0.3-0.3c0.9-1.5,1.6-3,1.8-4.7C542.1,152.3,539.4,151.4,538.7,153.5z"/>
			<path class="st4" d="M525.4,589.6c-6.7-3.1-16.1-3.2-22.9-0.4c-7.4,3-7.8,10.9-7.7,18c0.1,9.5,2.1,18.9,3.5,28.3
				c1.4,10.1,2.6,20.3,3.2,30.4c0.6,9.9,0.5,19.8,0.4,29.7c-0.1,9.3-0.5,18.6-3.3,27.6c-1.4,4.6-3.6,8.5-6,12.6
				c-1.9,3.2-3.5,6.5-3.3,10.3c0.3,4.7,4.3,8.9,9,8c2.3,1.3,5,2,7.6,2.3c2.9,0.4,4.1-3.4,1.2-4.4c-1.5-0.5-3.1-0.9-4.6-1.2
				c-2-0.8-3.6-2.1-3.9-4.5c-0.3-3.3,2.3-7.1,3.7-10c2.9-6,5.8-12,8.8-17.9c5.7-11.4,7.6-24.4,7.5-37c-0.1-13.3-2.6-26.5-5.9-39.4
				c-1.6-6.4-3.5-12.7-4.8-19.2c-1.5-7.4-1-14.1-1.3-21.6c0-0.2-0.1-0.5-0.1-0.7c0.2-0.5,0.4-1,0.6-1.5c1.1-2,2.7-2.8,4.5-4
				c0.2-0.2,0.4-0.4,0.5-0.6c0.2,0,0.3,0,0.5,0c3.9-0.3,7.6,0.6,11.4,1.1C526.9,595.8,528.1,590.9,525.4,589.6z"/>
			<path class="st4" d="M555.3,630.6c-0.3-0.1-0.6-0.2-1-0.3c-0.2-0.7-0.7-1.3-1.6-1.6c-2.5-1-5.4-1.4-7.8-2.8
				c-2.2-1.2-2.5-3.3-4.2-5c-1.5-1.6-4.4,0-3.8,2.2c1.6,5.2,2.9,10.5,3.7,16c0.4,2.4,4.5,1.9,4.3-0.6c-0.1-2.1-0.4-4.2-0.8-6.2
				c3.6,1.6,8.1,2.7,11,0.9C556.2,632.6,556.4,631.1,555.3,630.6z"/>
			<path class="st4" d="M614.2,589.1c-2.2-10.7-19.6-6-26.6-5c-3.7,0.6-5.4,1.6-6,4.2c0,0,0,0,0,0c0-0.5-0.3-1-1-1
				c-0.4,0-0.7,0.2-0.9,0.5c-0.1,0.1-0.2,0.3-0.3,0.5c-1.3,5.2,0,11-1.1,16.3c-1.1,5.4-3.4,10.5-5.3,15.7c-0.4,1.2,1.3,2.1,2.1,1.2
				c2.6-2.9,4.4-6.2,5.6-9.7c1.8-3.1,3.1-6.3,4-9.8c0.5-1.8,0.9-3.7,1.1-5.6c0.3-1.8-0.2-4.5,0.9-6.1c1.7-2.4,9-2.3,12.1-2.7
				c5.3-0.6,8.4,0.5,12.8,3.5C613,592.1,614.5,590.5,614.2,589.1z"/>
			<path class="st4" d="M582.4,747.6c-5.8-7.5-14.8-6.9-23.5-4.3c-5.8,0.4-11.3,2.1-16.7,4.9c-4.4,2.3-7.9,2.9-12.8,2.7
				c-4.8-0.2-8.9-0.6-13.6,0.5c-1.9,0.4-2.2,3.2-0.5,4.1c6.7,3.6,16.1,3.7,23.3,0.7c3.9-1.6,7.2-4.2,11-5.8c1.5-0.4,2.9-0.8,4.4-1.2
				c3.1-0.6,6.3-1.1,9.5-1.4c6-0.5,11.3,0.5,17,2.3C581.8,750.4,583.3,748.7,582.4,747.6z"/>
		</g>
		<path class="st14" d="M517.6,38.2c-1.1-0.5-2.1,0.3-1.9,1.5c0.3,2.3,1.4,4.2,1.5,6.6c0,2.1-0.7,5.7-2.9,6.8c-2,1.1-5.1,0-7.2-0.1
			c-2.7-0.1-5.3,0.2-7.8,0.8c-1.7,0.4-1.4,3.2,0.4,3.1c4.3-0.3,8.2,0.6,12.4,0.9c3,0.2,5.4-0.8,7.2-3.4
			C522.2,50.2,523.3,40.9,517.6,38.2z"/>
		<path class="st14" d="M571.2,465.6c0-2.1-3-3-4-1.1c0,0-3.5-2.3-3-1.8c-1.3-1.5-3.8,0.4-2.8,2.1c1,1.6,3,3.1,5.1,3.5
			c-0.5,4.1-0.8,8.1-1.3,12.2c-0.3,2.4-0.7,4.9-2.2,6.6c-0.1,0.1-0.2,0.1-0.3,0.2c-2,1-4-0.4-6-0.5c-3.1-0.1-5.9,1.8-8.9,2.3
			c-0.1-0.1-0.2-0.2-0.3-0.3c-1.1-1.3-3,0.4-2.2,1.7c0.9,1.6,2.4,2.5,4.2,2.9c0.4,0.1,0.8,0.2,1.2,0.3c5.9,2.4,14,1.2,17.6-4.4
			c1.8-2.9,2.1-6.3,2.3-9.6C571.1,475.1,571.3,470.4,571.2,465.6z"/>
		<path class="st14" d="M561.1,473.6c-0.4-0.6-0.9-1.2-1.1-1.9c-0.2-0.8,0.2-1.9,0.4-2.7c0.3-1.4,0.5-2.6-0.2-3.9
			c-0.6-1.2-2.4-0.6-2.5,0.7c0,1.6-0.5,3.3-0.4,5c0.1,1.5,0.8,2.8,1.6,4.1C559.9,476.2,562,475,561.1,473.6z"/>
		<path class="st10" d="M551.4,467c0-0.1-0.1-0.1-0.1-0.2c0-0.2-0.1-0.3-0.1-0.5c-0.3-1.2-2.1-0.7-1.9,0.4c-0.1,0.2-0.2,0.3-0.2,0.5
			c-0.1,0.8,0,1.7-0.2,2.5c-0.2,0.8-0.4,1.6-0.8,2.4c0,0.1-0.1,0.1-0.1,0.2c-0.1,0-0.3,0-0.4,0.1c-0.2,0.1-0.4,0.3-0.5,0.6
			c0,0.1-0.1,0.2-0.1,0.4c0,0.2,0,0.3,0,0.5c0,0.5,0.3,1,1,1c0.5,0,0.8-0.3,0.9-0.7c0.5,0.2,1.2,0.1,1.5-0.6
			C551.5,471.7,552.1,469.1,551.4,467z"/>
		<path class="st10" d="M542.3,481.2c-0.3-1.7-1.1-4-0.7-5.7c0.3-1.2-1.5-2.1-2.1-0.9c-1.1,2.4-0.1,4.8,0.5,7.2
			C540.4,483.3,542.5,482.7,542.3,481.2z"/>
		<path class="st14" d="M512.1,1040.3c-0.6-3.8-2.6-7.4-3.1-11.4c-0.6-4.4,0.1-8.7-0.2-13.1c-0.1-1.4-1.9-2.3-2.8-1.2
			c-0.9-0.6-2.1-0.6-2.8,0.7c-1.3,2.4-2,4.9-2.2,7.5c-0.8,2.8-1.3,5.7-0.5,8.6c0.8,3,2.1,6.3,1.6,9.5c-0.2,1-0.5,1.9-1,2.8
			c-0.6,0.8-1.4,1.7-2.2,2.7c-0.2,0.2-0.3,0.5-0.3,0.7c-1.3,1.3-2.6,2.6-3.8,4c-0.3,0.3-0.4,0.7-0.4,1c-0.4,0.3-0.9,0.6-1.4,0.9
			c-0.2,0-0.4,0-0.6,0.1c-1.4,0.7-2.7,1.3-4,2.1c0.2-0.5,0.2-1.1-0.4-1.6c0,0,0,0,0,0c-0.3-3-1.2-5.2-3-7.5
			c-1.3-1.7-4.2-0.1-2.9,1.7c1,1.5,1.9,2.8,2,4.6c0.1,1.6,0.4,3,1.9,3.8c0.1,0,0.1,0.1,0.2,0.1c-1.7,0.5-3.6,0.8-5.5,0.8
			c-6.9-0.1-13.7-1.2-20.5-2c-1.7-0.2-2,2.6-0.4,3c7.2,1.8,15.1,3.1,22.5,2.9c7.7-0.2,12.6-4.4,18.6-8.8
			C504.1,1049.5,512.9,1045.1,512.1,1040.3z"/>
		<path class="st14" d="M491.4,1017c-1,1.2-1.8,2.6-2.4,4.1c-1.6,3.4-2.6,7-5,10.1c-3.4,4.4-1,6.5,0.9,11.2c0.4,1.1,2.5,1.5,2.7,0
			c0.3-1.8,0.1-2.3-0.4-4c-0.4-1.3-0.6-2.2-0.6-3c1.4-1.7,2.5-3.6,3.4-5.7c0.9-2.2,1.5-5.2,2.5-7.6c0.4-0.8,0.9-1.7,1.4-2.4
			C495.4,1017.8,493,1015.2,491.4,1017z"/>
		<path class="st14" d="M653.1,1036.7c-1.1-7.7-6-9.9-11.1-14.9c-4.4-4.3-4.7-14.8-11.3-16.4c-0.8-0.2-1.5,0-2.1,0.5
			c-0.7-0.1-1.3-0.1-2,0c-3.5,0.3-7.4,1.3-10.8,2.3c-1.2,0.3-0.9,1.9,0.3,2c2.7,0.2,6-0.6,9-0.6c-0.3,1,0.1,2.3,1.1,2.8
			c1.5,0.7,2.8,1.1,3.8,2.4c0.7,1.3,1.5,3,2.3,4.6c0.2,0.6,0.5,1.1,0.8,1.6c0.6,1.3,1.2,2.4,1.6,3c0.3,1.8,0.2,3.5-0.1,5.5
			c0,0.2,0,0.4,0,0.6c-0.4,0.3-0.8,0.6-1.2,0.9c-2.6,2.1,0.5,5.5,3.2,4.5c0.3,0.2,0.7,0.3,1.1,0.3c0.1,0,0.1,0,0.2,0c0,0,0,0,0,0
			c0.7,0.3,1.8,0.7,2.8,1.2c1.1,3-0.2,7.8-1.6,9.5c-2.5,3.1-6.3,3.8-10,4.2c-2.4,0.3-2.5,3.9,0,3.8c0.9,0.1,1.9,0.1,2.8,0
			c5.5,1.1,10.8,0.5,16-1.9C653.6,1049.9,653.9,1042.5,653.1,1036.7z"/>
		<path class="st15" d="M547.3,92.5c-0.4-1.5-2-2.1-3.5-2.5c-0.2-0.1-0.4-0.3-0.5-0.4c-1.4-1.8-3.1-3.5-4-5.6
			c-1.1-2.4-0.1-3.8,0.7-6.1c0.2-0.4,0-0.8-0.3-1.1c0-0.2-0.1-0.5-0.3-0.7c-0.4-0.6-1.2-0.7-1.8-0.4c-0.9,0.5-1.8,1.1-2.6,1.7
			c-0.1,0.1-0.2,0.1-0.2,0.2c-0.2-0.3-0.4-0.5-0.6-0.7c-0.7-0.7-2-0.4-2.3,0.6c-0.5,1.8,0.3,3.6,0.6,5.4c0.3,2.1,0.4,4-0.8,6
			c-0.6,1,0.8,2.1,1.6,1.2c0.6-0.7,1.2-1.5,1.6-2.3c0.2,0.7,0.5,1.2,1.3,1.7c1.6,1,3.4,1.6,5.1,2.4c0.5,0.4,1,0.9,1.6,1.2
			c1,0.6,2.1,1.4,3.3,0.9C547,94,547.6,93.3,547.3,92.5z"/>
		<path class="st15" d="M555.7,79.1c-0.4-1.2-2.2-1.3-2.6,0c-0.6,2.4-0.8,4.9-1.1,7.4c-0.1,1.1-0.7,7.8-2,7.9
			c-1.1,0.1-1.8,1.4-0.9,2.3c0.1,0.1,0.3,0.3,0.4,0.4c0.4,0.4,1,0.6,1.6,0.4c2.9-0.8,3.4-4.5,4.1-7.1
			C556.3,86.7,557,82.8,555.7,79.1z"/>
		<path class="st15" d="M576.9,237.3c-3.4-4.9-9.4-12.4-16-11.9c-0.9-0.2-1.9-0.2-2.9-0.1c-3.8,0.6-6.4,3.4-8.6,6.3
			c-0.2,0.2-0.2,0.5-0.1,0.7c-0.3,0.4-0.5,0.8-0.7,1.3c-0.2,0.2-0.2,0.4-0.3,0.6c0,0.2-0.1,0.4,0,0.6c0.1,0.4,0.4,0.8,0.9,0.8
			c0.3,0,0.6-0.1,0.7-0.3c0.2-0.1,0.3-0.2,0.4-0.4c0.4-0.6,0.6-1.2,1-1.8c0.1-0.1,0.2-0.3,0.3-0.4c0.4,0.1,0.8,0.1,1.2-0.2
			c0.9-0.7,1.8-1.2,2.8-1.7c1.5-0.4,2.8-0.6,4-0.6c3.1,1.9,5.9,4.3,8.3,6.9c0.3,0.4,0.5,0.8,0.6,1c1.7,2.9,3,6,4,9.3
			c0.9,3.2,1.4,6.6,1.4,10c0,4.6-1.8,7.3-3.5,11.4c-2.4,6.1,0.4,14-3.3,19.4c-3.9,5.8-11.9,7.8-18.1,9.7c-1.1,0.3-1.6,2.2-0.4,2.7
			c3.2,1.4,7,0.7,10.5-0.9c0.9-0.1,1.7-0.2,2.5-0.4c0,0,0.1,0,0.1,0c7.9,0,11.7-8.1,13.9-14.6c1.6-4.8,2.5-10.1,5-14.6
			c2.1-3.8,4.1-6.4,4-10.9C584.4,251.6,581.3,243.7,576.9,237.3z"/>
		<path class="st15" d="M552,512.2c-0.5-1.8-1.6-2.5-3.1-3.2c-1.2-0.6-2.7,0.7-1.9,1.9c0.4,0.6,0.8,0.8,1.3,1.2
			c0.8,0.7,0.7,1.9,0.5,2.9c-0.5,1.6-1.9,4.4-3.9,3c-1.2-0.8-2.2,0.9-1.4,1.8c2.6,3,6.2,0.1,7.8-2.4
			C552.3,515.9,552.5,514,552,512.2z"/>
		<path class="st15" d="M581.2,505.5c-0.8-2.2-2.7-4.8-5.3-4.7c-1.3,0-2.5,0.9-3.6,1.5c-1.7,0.9-3.5,1.9-4.9,3.2
			c-0.9,0.8,0,2.5,1.2,2.1c1.8-0.6,3.5-1.7,5.3-2.6c0.9-0.4,1.6-1,2.5-0.7c-0.2,0.3-0.3,0.6-0.2,1c0.2,1.5-0.1,2.7-0.6,3.8
			c-1.4,2.7-4.7,4.3-7,6.5c-0.9,0.9,0,2.4,1.2,2.1c1-0.2,2-0.7,2.9-1.3c2.4,0.1,6.3-0.9,7.9-2.8
			C582.5,511.5,582.1,507.9,581.2,505.5z"/>
		<path class="st15" d="M551.9,808.2c-0.8,0.7-1.6,1.4-2.3,2.2c-0.4,0.1-0.7,0.4-1,0.7c-4.7,5.4-7.2,11.9-9.3,18.7
			c-2.6,8.2-4.7,16.7-6.8,25c-4.5,17.7-7.9,35.6-10.9,53.5c-2.9,17.2-5.3,34.6-7.6,51.9c-1.2,9.3-2.3,18.7-3.7,28
			c-0.4,3-1,6.8-2,10.3c-0.9,0.2-1.6,0.9-1.5,2.1c0.1,0.6,0.1,1.2,0,1.8c-2,4.1-5.3,7.1-10.8,6.4c-2.5-0.3-2.8,3.6-0.6,4.3
			c0.1,0,0.3,0.1,0.4,0.1c0.1,0.2,0.3,0.4,0.5,0.5c3.3,2.4,10.8,2.1,14.5,0c0.7-0.2,1.2-0.7,1.4-1.3c0.7-1.3,0.4-3.1,0.4-4.5
			c0.1-2,0.1-4,0.2-6c0-0.2,0-0.3,0-0.5c0-0.8,0.1-1.6,0.1-2.4c2.4-8.2,4-16.8,5.4-25.2c3.1-19,4.9-38.1,7.9-57.1
			c3.1-19.2,6.9-38.4,10.7-57.5c0.8-4,1.5-8,2.4-11.9c0.7-2.4,1.4-4.9,2.2-7.3c2.7-8.6,4.7-18.3,10.7-25.2c0.7-0.8,0.8-1.8,0.5-2.6
			c0.4-0.8,0.9-1.6,1.3-2.5C554.7,808.4,553.1,807.2,551.9,808.2z"/>
		<path class="st15" d="M634.8,993.6c-1.5-3.2-2.9-6.1-3.7-9.5c-0.8-6.3-1-12.6-1.8-18.8c-0.2-7.2-0.5-14.5-2.6-21.5
			c-2.1-7-4.8-13.8-6.4-20.9c-0.1-0.3-0.1-0.5-0.2-0.8c0-0.5-0.1-1-0.1-1.5c0-0.6-0.2-1-0.5-1.4c0-0.1,0-0.2-0.1-0.3
			c-0.1-1.2-0.2-2.4-0.2-3.6c0-0.7-0.3-1.2-0.6-1.6c-0.7-5-1.2-10.1-1.6-15.2c-1.3-16-5.2-31.2-4.3-47.4c0.1-1.2-0.6-1.9-1.5-2.1
			c0.8-14.3-4.6-28.1-6.8-42.3c-1.4-8.8-1.6-17.7-2.5-26.6c-0.7-6.9-1-15.8-5.2-21.5c-0.2-1-0.4-1.9-0.6-2.9c-0.4-1.9-2.5-2-3.6-1
			c-2.5-3.1-7-4.1-11.1-4.4c-2.3-0.8-4.6-1.4-6.8-1.7c-6.6-0.9-14.2,0.2-20.8,1c-6.3,0.8-11.3,4.4-16.9,6.8c-0.1,0-0.2,0-0.4,0.1
			c-5.4,0.8-10.6-0.1-15.9,0.1c-1.6,0.1-2.7,2.6-0.9,3.3c15.3,6.7,32-4.2,47.2-5.6c7.8-0.7,15.3,2,19.9,8.5
			c4.9,6.9,3.2,15.2,6.1,22.7c0.1,0.4,0.3,0.6,0.6,0.8c0.3,6.4,0.9,12.9,1.9,19.3c2.4,16.7,6.5,33.1,7.9,50
			c1.3,15.9-2.1,32.3,2.3,47.9c2.1,7.4,5.4,14.5,7.4,21.9c2,7.8,3,15.7,4.5,23.6c1.8,9.6,4.4,19,5.3,28.8c0.6,6.5,1.4,17.4-2.6,23.8
			c-0.7,0.4-1.4,0.7-2.1,1.1c-0.8,0.4-0.8,1.2-0.5,1.8c-0.2,0.2-0.4,0.4-0.7,0.5c-1.6,1-0.2,3.3,1.5,2.5c0.7-0.3,1.4-0.7,2-1.1
			c0.5,0.2,1.2,0.2,1.8-0.1c0.4-0.2,0.9-0.4,1.3-0.7c0.1,0,0.2-0.1,0.3-0.1c1.3-0.3,2.8-0.7,4.2-1.2c0.1,0,0.3-0.1,0.4-0.1
			c0.6,0.2,1.3,0.3,2.1-0.1c1.2-0.6,2-1.4,2.7-2.3c1-0.7,1.7-1.5,2.2-2.4C636.2,997.2,635.6,995.4,634.8,993.6z M608.5,874.6
			c0-0.8,0.1-1.5,0.1-2.3c0,0.4,0.1,0.8,0.1,1.3c0,0.3,0.1,0.6,0.1,0.8C608.7,874.5,608.6,874.5,608.5,874.6z"/>
		<path class="st16" d="M556.6,184.1c-3.7-3.5-5.5-10-7-14.7c-1.9-6.2-2.5-12.4-1-18.8c0.2-0.9,0-1.9-0.7-2.5
			c-1.2-1.1-2.3-1.8-3.9-2.3c-3.1-1.1-4.5,3.8-1.4,5c0.2,0.1,0.4,0.2,0.5,0.3c-1.2,6.6-0.7,13.3,1.1,19.8c1.3,4.4,2.9,9.8,5.6,14
			c0.2,0.7,0.4,1.4,0.5,2.1c0.1,0.6,0.2,1.2,0.2,1.7c-0.8,2.4-1.6,4.9-2.2,7.5c-0.2,0.1-0.4,0.3-0.5,0.5c-0.9,1.3-1.5,2.7-2.1,4.3
			c-0.6,1.8-0.9,4.3-2.7,5.2c-1.5,0.7-3.2,0.1-4.8,0.1c-1.6,0-3.2,0.3-4.7,0.7c-2.1,0.7-2.5,4.3,0,4.7c2,0.4,4.1,0.5,6.2,0.5
			c1,0,2-0.1,3.1-0.1c0.2,0.3,0.5,0.6,0.9,0.7c2.6,0.9,4.9,2.1,7.2,3.6c0.9,0.6,1.9,0.5,2.6-0.1c0.6,0,1.2-0.4,1.2-1.2
			c-0.3-5.7-0.4-11.3,0.1-17c0.3-2.6,1-5.4,1.3-8.1c0.4-1.1,0.8-2.1,1.2-3.1C557.7,186,557.3,184.8,556.6,184.1z"/>
		<path class="st16" d="M524.1,166.2c-0.6-1.3-1.8-2.4-2.6-3.6c-0.8-1.2-1.4-2.4-2.6-3.3c-1-0.8-2,0.5-1.9,1.4
			c0.2,1.5,1.3,2.7,2.2,3.9c0.9,1.1,2,2.5,3.3,3C523.7,168.2,524.6,167.3,524.1,166.2z"/>
		<path class="st16" d="M539.9,620.7c-0.1-5.7-2.2-12.1-3.8-17.3c-1.6-5-3.4-10.3-9-11.4c-1-0.2-1.8,0.8-1.6,1.7
			c-2.1,0.2-2.7,3.5-0.3,4.4c5.2,2,5.8,10.3,7.2,15.1c1.5,5.2,3.2,10.4,4.7,15.6c0.1,0.4,0.4,0.7,0.7,0.7c0.3,1.2,0.6,2.3,1,3.3
			c0.5,1.4,2.7,1.3,2.7-0.4C541.3,628.6,540.7,624.6,539.9,620.7z"/>
		<path class="st16" d="M572.4,619.3c-0.3,0.3-0.6,0.7-0.9,1c-0.7-0.4-1.7-0.2-2.2,0.5c-0.9,1.4-1.9,2.7-2.8,4.1
			c-0.8,1.2-1.6,2.6-2.7,3.6c-0.9,0.4-1.8,0.8-2.6,1.2c-2,0.9-0.5,3.5,1.4,3.2c1.6-0.3,2.9-1,4.1-1.9c1.6-0.8,3.1-1.8,4.2-3.1
			c1.7-1.9,3.3-4.8,3.9-7.3C575.1,619.3,573.5,618.3,572.4,619.3z"/>
		<path class="st16" d="M610.4,627.3c4-12.2,7.6-25,6.4-38c-0.1-1.4-1-2.2-2-2.5c-0.4-2.1-1.7-3.5-4.2-3.2c-1.5,0.2-2.1,1.9-0.8,2.9
			c1.3,0.9,0.8,4.1,0.6,5.5c-0.2,1.2-0.6,2.4-1,3.5c-0.8,2.6-1.7,5.2-2.5,7.8c-1.4,4.6-2.8,9.3-4.4,13.8
			c-3.4,9.7-7.2,19.3-10.9,28.9c-5.4,14.1-11,31.1-4.5,45.8c0.5,5,1.2,9.9,1.9,14.8c1,6.7,2.2,13.5,3,20.2c0.4,3.5,0.7,7,0.9,10.5
			c0,0.7,0.9,11.1-0.5,10.7c-0.6-0.2-1.1,0.1-1.4,0.5c-4.7-1.2-9.5-2.3-14.3-3c-3-0.8-6-1.3-9.2-0.5c-2.3,0.5-1.8,4.4,0.6,4.1
			c3.7-0.4,7.2,0.6,10.7,0.9c2,0.7,4,1.6,6.1,2.3c4.9,2.5,10.2,3.7,15.7,3.9c1.6,0.1,3-1.7,2.5-3.3c-0.3-1-0.6-2.1-0.9-3.2
			c0.3-0.9,0.5-1.9,0.5-3.2c-0.1-8.7-1.2-17.5-2.6-26.1c0-3.1,0.1-6.2,0.1-9.2c-0.2-14.6-0.2-29.2,0.9-43.8
			C602.3,653.4,606.1,640.5,610.4,627.3z"/>
		<path class="st17" d="M552.7,108.2c0.1-0.3,0.1-0.6-0.1-0.9c0-0.1-0.1-0.2-0.1-0.3c0,0,0-0.1,0-0.1c0,0,0,0,0,0c0,0,0,0,0,0
			c-0.3-1.6-0.9-3.2-1.6-4.6c0-0.2-0.1-0.3-0.1-0.5c-1.6-3-3.4-5.9-6.1-8c-2.9-2.3-6.6-3.1-9.4-5.6c-1.4-1.3-4.1,0.4-2.8,2.2
			c0.1,0.1,0.2,0.2,0.3,0.4c0,0,0,0,0,0c0,0,0,0,0,0c2.1,2.7,4.9,3.7,7.9,5.3c2.7,1.4,4.5,3.8,6,6.5c-2.8-0.2-5.8,1.3-7.2,4.6
			c-0.4,0.4-0.6,0.9-0.9,1.4c-0.3,0.6-0.6,1.3-0.8,1.9c-0.3,1.1,1.1,2,1.9,1.1c0.5-0.5,0.9-1,1.3-1.6c0.1-0.2,0.2-0.3,0.3-0.5
			c0.2-0.1,0.3-0.3,0.5-0.5c1.3-2.7,5.5-4.8,7.3-1.2c0.1,0.4,0.2,0.8,0.2,1.2c0.3,2.7-0.2,5.4,1.3,7.9c0.7,1.2,2.5,0.6,2.5-0.7
			C553.2,113.7,553.1,110.9,552.7,108.2z"/>
		<path class="st17" d="M541.4,71.3c-0.1-0.1-0.1-0.2-0.2-0.3c-0.4-0.7-0.7-1.4-1.2-2.1c-0.4-1-0.8-2-1.5-2.9
			c-0.8-1.1-1.8-2.1-2.8-3c-0.4-0.4-0.9-0.8-1.4-1.2c0,0,0,0-0.1-0.1c0,0,0,0,0,0c-0.1-0.1-0.2-0.2-0.4-0.3
			c-1.7-1.2-3.7,1.5-2.2,2.9c1.5,1.4,3.1,2.8,4.2,4.6c0,0.1,0.1,0.1,0.1,0.2c0,0,0,0,0,0c0.5,1.1,0,2-0.6,2.9
			c-0.7,0.5-1.2,1.2-1.7,2c-0.5,0.8-0.2,1.6,0.3,2c0.4,0.9,1.6,1.3,2.6,0.5c1.2-0.9,2.4-1.6,3.9-1.9C542,74.2,542.3,72.4,541.4,71.3
			z"/>
		<path class="st13" d="M502.7,83.7c-7.9,2.9-15.8,3-22.9,8.2c-3.8,2.9-7.1,6.5-10.4,9.9c-3.8,3.9-7.9,7.8-11.3,12.1
			c-1.1,1.4,0.6,3.1,1.9,1.9c8.2-6.6,14.5-15.8,23.3-21.5c4.3-2.8,9-4.1,14-4.8c3-0.4,5.6-0.7,7.3-3.3
			C505.4,85,504.1,83.2,502.7,83.7z"/>
		<path class="st13" d="M514.1,61.8c-0.7-0.2-1.5,0-1.9,0.5c-0.1,0.1-0.1,0.1-0.2,0.2c-0.5,0.6-0.6,1.4-0.3,2.1
			c0.3,0.5,0.7,0.9,1.3,1.1c0.5,0.2,0.7,0.1,1,0.6c0.5,0.9,0.3,2.3,0.1,3.2c-0.3,2.4,2.7,3.3,3.7,1C519.2,67,517.7,63,514.1,61.8z"
			/>
		<path class="st13" d="M506.7,138.1c-0.7-4.5-4-8.3-8.5-9.3c-2.6-0.6-5.2-0.3-7.8-0.6c-4.9-0.5-7.9-3.3-11.7-6.3
			c-1.3-1-3.1,0.7-1.8,1.8c3.6,3.3,6.4,7.3,11.5,8.2c6,1.1,13.4-0.8,15.4,6.9C504.2,140.9,507,140,506.7,138.1z"/>
		<path class="st13" d="M557.6,118.6c-0.3-3.3-4.2-6-6.3-3.8c-0.1,0.1-0.2,0.2-0.3,0.3c-0.1,0.2-0.2,0.3-0.3,0.4
			c-0.2-1.3-0.6-2.6-1.2-3.8c-0.6-1.2-2.7-0.9-2.9,0.4c-1.1,6.4-0.6,13.1-1.8,19.6c-1.1,6.2-2.8,12.5-7.6,16.9
			c-0.4,0.4-0.4,0.8-0.3,1.2c-0.2,0.1-0.4,0.3-0.5,0.5c-0.1,0.1-0.2,0.2-0.2,0.3c-0.2,0-0.5,0.1-0.7,0.3c-1.1,0.9-2.3,1.7-3.4,2.6
			c-0.2,0.1-0.3,0.3-0.4,0.5c-5.2,0.3-9-1.6-13.3-4.4c-0.2-0.1-0.4-0.2-0.5-0.2c-0.1-0.1-0.1-0.2-0.2-0.3c-0.2-0.6-0.3-1.1-0.5-1.7
			c-0.5-1.5-3-1.3-2.9,0.4c0,0.6,0.1,1.3,0.2,1.9c-0.1,0.2-0.1,0.5-0.1,0.8c0.3,3.5,1.4,6.6,3.4,9.4c0.3,0.4,0.7,0.7,1.1,0.8
			c0.4,0.5,0.7,1.1,1.1,1.6c1.2,1.8,2.4,3.4,4.8,3.1c0.5-0.1,0.8-0.5,0.9-1c0.1,0.1,0.2,0.2,0.4,0.2c4.4,0.8,7.5-0.3,10.2-3.8
			c1.4-1.8,2-4,3.3-5.8c0.5-0.8,1.4-1.2,1.9-2c0.5-1,0.4-2.4,0.5-3.4c0-0.5-0.1-0.8-0.4-1.1c2.2-2.4,3.4-5.6,4.4-8.9
			c0.6,0.5,1.5,0.4,2-0.3c1.1-1.7,1.1-4.2,1.2-6.1c0,0,0,0,0-0.1c1.9-2.3,4.7-3.6,6.3-6.2C556.9,124.3,557.8,121.4,557.6,118.6z
			 M526.3,162.4c-0.5,0-0.9,0.4-1,0.8c-1-1.5-2.3-2.7-3.2-4.2c-0.5-0.8-1.1-1.8-1.7-2.7c1.2,0.5,2.5,0.9,3.7,1.1
			c0.7,0.1,1.2,0,1.6-0.3c2.1,0.5,4.2,0.4,6.3-0.6c0.3,0.2,0.6,0.4,0.9,0.4c-0.5,0.8-0.9,2-0.4,2.8c0.1,0.2,0.3,0.4,0.6,0.5
			c-0.2,0.3-0.4,0.5-0.7,0.7C530.8,162.6,528.5,162.6,526.3,162.4z M554.8,119.5c0,0.9-0.1,1.8-0.3,2.7c-0.4,1.9-1.3,3.5-2.6,4.9
			c-1,1.1-2.1,1.9-3.2,2.9c1.2-3.9,2.3-8.1,2.2-12.1c0.6,0.4,1.5,0.3,2-0.4C554.4,117.6,555,118.2,554.8,119.5z"/>
		<path class="st13" d="M708.9,167.8c-0.4-2.1-2.4-4.5-4.3-5.8c0-0.5-0.1-1-0.5-1.3c-1.6-1.7-3.5-2.8-5.6-3.8
			c-0.4-0.2-0.9-0.4-1.3-0.6c0,0,0,0,0,0c0,0,0,0,0,0c-0.1-0.1-0.3-0.1-0.5-0.2c-2-0.8-3.3,2.5-1.5,3.4c1,0.5,2,1,3,1.6
			c0.6,0.5,1.2,1,1.8,1.7c1.2,1.4,1.5,3.2,2.6,4.6c0.4,0.6,1.4,0.8,2,0.5c0.2,0.2,0.4,0.4,0.5,0.7c0.5,0.9,0.4,0.9-0.2,1.6
			c-0.8,0.9-2,1.6-3,2.4c-1.1,0.8-2,1.9-3.2,1.8c0-1-0.9-2-2.1-1.6c-1.8,0.7-3.4,2.1-5.2,2.5c-1.9,0.4-4.1-0.1-5.7-1.2
			c-0.5-0.4-1.1-0.3-1.6,0.1c0-0.7-0.3-1.4-1.2-1.7c-4.1-1.3-8.5,0.5-12.8,0.4c-4.9-0.1-9.9-0.8-14.8-0.5c-4.2,0.2-8.3,1-12.4,1.7
			c-5.6,0.9-10.4,0.4-15.9-0.2c-1.8-0.2-2.1,2.3-0.8,3.1c7.2,5,17.8,2.3,25.8,1.4c4.6-0.5,9.2-0.1,13.8-0.1c5.5,0,10.9-3.8,16.3-2.5
			c0.6,0.1,1.1,0,1.4-0.3c0,0.2,0.1,0.5,0.2,0.7c1.2,2,3.8,2.5,6,2.7c2.8,0.2,4.5-1.1,6.7-2.2c1.1,1,2.5,1.4,4.1,1.1
			c2.2-0.5,5-2.6,6.6-4.1C708.3,172.4,709.2,169.6,708.9,167.8z"/>
		<path class="st13" d="M617.2,173.1c-8.3-4.9-16.4-3.2-25.2-0.9c-3.5,0.9-7.2,1.2-10.8,1.2c-0.2-0.4-0.5-0.7-1-0.8
			c-3.1-1-6.6-0.9-9.8-1.5c-3.3-0.7-6.4-1.6-9.6-2.8c-1.7-0.6-2.9,1-2.7,2.5c0,0,0,0.1,0,0.1c-0.3,2.5-0.9,4.9-1.5,7.3
			c-0.2,0.5-0.3,1-0.4,1.5c-0.1,0.3-0.1,0.6-0.2,0.9c0,0.2,0,0.4,0,0.6c-0.2,0.3-0.4,0.5-0.6,0.8c-0.2,0.3-0.3,0.5-0.3,0.8
			c-0.1,0.2-0.2,0.3-0.3,0.5c-0.7,1.3,0.6,2.7,1.8,2.3c0,0,0,0,0,0c0.2,0.8,0.7,1.3,1.3,1.4c-5.7,10.9-4.4,23.9-1.2,35.3
			c0.1,0.5,0.4,0.8,0.8,1c0.2,0.6,0.4,1.2,0.6,1.8c0.4,1.1,2.3,1.1,2.2-0.3c-0.1-1-0.1-2-0.2-2.9c0-0.1,0-0.2,0-0.2
			c-0.8-11.3-1.2-22.1,1.8-33.4c0.3-1.1-0.4-2-1.3-2.4c0.1-0.3,0.2-0.5,0.2-0.9c0-1.1,0.1-2.3,0.2-3.5c0.1-0.1,0.3-0.3,0.4-0.4
			c1.1-0.7,2.3-1.3,3.7-1.7c0.5,1.8,1.7,3.4,2.8,5c0,0.2-0.1,0.4,0,0.6c0.6,2.7,1.3,5.7,2.6,8.1c0.2,0.3,0.4,0.5,0.7,0.6
			c2,6,3.7,12.1,5.6,18.1c0,0,0,0,0,0.1c0.1,0.3,0.2,0.5,0.2,0.8c1,4.2,1.7,8.5,2.3,12.8c0.4,2.7,0.7,5.3,1,8
			c-0.6-0.6-1.9-0.4-2,0.7c-0.4-0.5-0.7-1-1.1-1.5c-2.4-4-5.9-7.5-10.6-8.4c-1.5-0.3-2.9,1.6-1.6,2.7c1.6,1.4,3.4,2.2,5.1,3.4
			c-0.2,0.8-0.1,1.6,0.5,2.3c2.4,2.7,4.4,5.6,6,8.8c0.7,1.7,1.3,3.4,2.2,4.9c0.1,0.2,0.3,0.4,0.5,0.6c0.6,2,1.2,4.1,1.8,6
			c0.9,2.8,5.4,1.7,4.5-1.2c-0.1-0.4-0.3-0.9-0.4-1.3c0.2-8.8-0.1-17.6-1.3-26.4c-0.6-4.2-1.4-8.4-2.4-12.5
			c-1.3-6.9-3.6-13.7-5.8-20c-0.1-0.3-0.3-0.5-0.5-0.7c-0.4-1.4-0.9-2.8-1.4-4.1c-1.1-2.6-2.5-5.9-4.7-7.8c0.3,0,0.6,0,0.9,0
			c1.4,0.2,2.8,0.4,4.2,0.5c4.3,0.6,8.7,0.7,12.9,0.3c4.1-0.4,8.2-1.2,12.3-1.8c4.6-0.7,9.2-0.7,13.7-1.3c0.8,0.1,1.6,0.2,2.4,0.3
			C617.8,177,619.3,174.3,617.2,173.1z"/>
		<path class="st11" d="M701,160.9c-0.8-3.9-4.5-5.8-8.2-5c-3.2,0.6-6.2,2.4-9.3,3.3c-3.6,1.1-6.9,1.4-10.7,1.1
			c-1.3-0.1-1.6,1.7-0.6,2.3c3.8,2.5,8.2,1.4,12.4,0.5c2.5-0.5,5-1.1,7.5-2c3-1,4,0.3,6.6,1.6C699.9,163.4,701.3,162.3,701,160.9z"
			/>
		<path class="st11" d="M629.1,154.7c0-0.2-0.1-0.3-0.3-0.5c-0.2-0.2-0.4-0.3-0.7-0.3h-0.3c-0.1,0-0.3,0-0.4,0.1
			c-0.1,0-0.1,0.1-0.2,0.1c-0.1,0-0.2-0.1-0.3-0.1c-7.3-1-14.9,1-21.9-1.4c-1.2-0.4-1.8,1.3-0.8,1.9c3,2,6.4,2.1,9.9,2.2
			c4.3,0.1,8.6,0.2,12.9-0.4c0.3,0,0.5-0.2,0.6-0.4c0.1,0,0.1,0,0.2,0h0.3c0.1,0,0.3,0,0.4-0.1c0.1,0,0.2-0.1,0.3-0.2
			c0.1-0.1,0.2-0.2,0.2-0.3c0.1-0.1,0.1-0.3,0.1-0.4C629.1,154.9,629.1,154.8,629.1,154.7z"/>
		<path class="st13" d="M568.9,392.2c-0.2-2.4-0.5-4.7-1-7c-1.7-8-5.4-15.4-6.7-23.5c0,0,0,0,0,0c2.1-21.3,13.1-40.9,12.1-62.7
			c0-0.6-0.3-1.3-0.8-1.8c0.2-0.8,0.4-1.5,0.5-2.3c0.4-1.5-1.6-2.3-2.5-1c-0.2,0.3-0.3,0.5-0.5,0.8c-0.4-0.2-0.9-0.2-1.4,0
			c-6.6,2.8-13.2,5.5-20.2,7.3c-0.1,0-0.2,0.1-0.3,0.1c-1.9-0.2-3.8-0.4-5.6-0.7c-2.8-0.4-3.5,3.2-1.1,3.9c0,0,0,0,0,0
			c2.1,0.3,4.1,0.6,6.2,0.9c0.4,0.4,0.9,0.6,1.5,0.6c0.8,0.1,1.7,0.1,2.5,0.1c4.2,1.2,7.8,3.4,9.1,8.3c1.5,6.1-1.2,12.1-3.3,17.7
			c-3.7,10.1-3.2,21.1-0.3,31.4c0,4,1.2,7.8,2.5,11.6c-0.4,5.7,1.6,11.4,3,16.9c0.4,1.4,0.7,2.8,1,4.2c0,4.2-0.2,8.5-0.6,12.7
			c-1.2,16.4-2.8,33.1,1.8,49.1c0,1.2,0,2.4,0.1,3.6c0.1,2.8,4.3,2.8,4.4,0c0.3-8.1,0.2-16.3,0.6-24.4c0.4-8.1,1.6-16.2,2-24.3
			c0.4-7.2-0.9-14.1-2.9-21C569,392.7,568.9,392.4,568.9,392.2z"/>
		<path class="st13" d="M532.5,559.6c0-0.9,0-1.9,0.1-2.8c0-0.6-0.2-1-0.6-1.3c0.2-0.8,0.3-1.5,0.3-2.3c-0.1-1.2-2-2-2.6-0.7
			c-0.4,0.8-0.5,1.6-0.7,2.5c-0.1,0.6-0.2,1.2-0.2,1.8c-1.2,4.9-1,10-1.3,15c-0.4,5.2-0.9,12.7-5.6,15.9c-1.5,1-0.6,3.5,1.3,3
			c0.9-0.2,1.6-0.6,2.3-1.1c0.2,0.8,0.9,1.2,1.6,1.3c1.1,0.6,2.6,0.2,2.8-1.3c2.5-4.8,4.2-9.4,4.2-14.9
			C534.1,569.8,533.4,564.5,532.5,559.6z"/>
		<path class="st13" d="M539.1,523.9c-3.7,6.6-2,15-5,22c-0.7,1.5,1.4,2.8,2.2,1.3c1.9-3.5,2.8-7.1,3.4-11c0.6-3.9,1.6-7.7,2.1-11.6
			C542.1,523.2,539.8,522.7,539.1,523.9z"/>
		<path class="st13" d="M611.2,579.4c-4.1-4.3-6-9.8-8.1-15.2c-2-5.3-4.6-10-7.7-14.8c-2.1-3.3-3.8-6.6-5.3-10
			c-0.5-1.8-1-3.6-1.6-5.3c-0.8-2-1.7-4-2.7-5.9c-1.3-3.5-2.9-7.1-5.4-9.6c-0.3-0.3-0.5-0.4-0.8-0.5c-0.4-0.6-0.9-1.3-1.3-1.9
			c-1.6-2.3-5.4-0.1-3.8,2.2c2.1,3.2,4.3,6.4,6.2,9.8c0.3,0.7,0.6,1.5,0.8,2.3c0.8,2.6,1.4,5.1,2.3,7.6c1.4,4,3.3,7.6,5.3,11.1
			c2.1,4.4,5.3,8.2,6.5,13.1c0.8,3.2,1.9,9,0.8,13.2c-2.8,0.4-5.4,1.4-6.8,3.6c-1.1,1.6,0.8,4.3,2.7,3.5c0.6-0.2,1.2-0.5,1.8-0.7
			c0.4,0.2,0.9,0.3,1.4,0c0.1-0.1,0.2-0.2,0.4-0.2c0.4,0.8,1.2,1.5,2.3,1.5c2.2,0,4.5,0,6.7-0.1c1.2,0.2,2.5,0.5,3.7,0.9
			C611.2,584.7,613,581.3,611.2,579.4z"/>
		<path class="st13" d="M580,592.2c-0.1-1.4-0.5-2.6-1-3.8c-0.3-0.9-0.6-1.8-1.1-2.6c-0.4-2.2-1.5-4.1-3.2-5.9
			c-0.4-0.5-1-0.9-1.5-1.3c0,0,0,0,0,0c0,0,0,0,0,0c-0.1-0.1-0.3-0.2-0.4-0.3c-1.8-1.3-4,1.6-2.3,3c1.2,1.1,2.3,2.1,3,3.5
			c-0.2,0.6-0.1,1.3,0.3,1.9c0.1,0.1,0.2,0.3,0.3,0.4c0,0.3,0,0.5,0,0.8c-0.1,1.8-0.9,4.6-2.7,5.8c-4-0.5-8.4-1-12.1-0.3
			c-2.9,0.6-5.6,2.7-7.9,4.8c-0.1,0.1-0.2,0.1-0.4,0.2c-0.3,0.2-0.5,0.4-0.6,0.7c-0.4,0.3-0.7,0.7-1.1,1c-1.6,1.8,0.9,4.3,2.7,2.7
			c0.5-0.5,1.1-1,1.6-1.4c0.4,0.7,1.1,1.3,2.1,1.3c3.8,0,7.6,0.1,10.9,1.5c1.5,1.6,2.8,3,2.7,5.5c-0.1,2-1.1,3.9-2,5.7
			c-0.1,0.1-0.1,0.1-0.2,0.2c0,0,0,0,0,0c-0.8,0.5-1.5,1-2.3,1.7c-1.2,1.2-2.2,2.5-3.2,3.8c-3.6,1.5-7,1.9-7.9,6.6
			c-0.4,1.8,0.9,4.4,3.1,4.1c7.5-0.9,10.2-6,14.8-11.2c2-2.3,4.2-3.2,5.5-6.1c0.3-0.8,0.6-1.6,0.8-2.4c0.2-0.4,0.3-0.9,0.3-1.4
			c0.4-1.8,0.5-3.6,0.3-5.4c0.6-0.4,1.1-1.1,0.9-2C578.6,599.4,580.4,596,580,592.2z M572.5,598.7c0.6-0.1,1.2-0.3,1.7-0.5
			c-0.2,0.5-0.4,0.9-0.7,1.3C573.2,599.3,572.8,599,572.5,598.7z"/>
	</g>
</g>
</svg>
